<?xml version="1.0" encoding="UTF-8"?>
<svg version="1.1" xmlns="http://www.w3.org/2000/svg" width="626" height="626">
<path d="M0 0 C206.58 0 413.16 0 626 0 C626 206.58 626 413.16 626 626 C419.42 626 212.84 626 0 626 C0 419.42 0 212.84 0 0 Z " fill="#FEFEFE" transform="translate(0,0)"/>
<path d="M0 0 C2.9375 1.8125 2.9375 1.8125 5 5 C6.21941078 11.74954564 5.02776505 17.17136638 1.77734375 23.125 C0.69117721 25.16593181 0.69117721 25.16593181 2 28 C2.804375 28.61875 3.60875 29.2375 4.4375 29.875 C7.79176071 32.65658205 8.70064726 34.6788649 9.25390625 38.96875 C9.66159184 46.43860204 7.39050461 52.92649407 2.8125 58.8125 C-2.41024644 62.87463612 -7.18189817 66.42012951 -14 66 C-14 66.66 -14 67.32 -14 68 C-19.95703125 68.48828125 -19.95703125 68.48828125 -22 68 C-24.77209539 64.27855074 -25.37007539 61.60840254 -25.34057617 57.01635742 C-25.34034958 55.83551071 -25.34012299 54.654664 -25.33988953 53.43803406 C-25.32440567 52.17328751 -25.30892181 50.90854095 -25.29296875 49.60546875 C-25.28872391 48.30297684 -25.28447906 47.00048492 -25.28010559 45.65852356 C-25.26869012 42.20767733 -25.23925217 38.75721417 -25.20599365 35.30651855 C-25.17522108 31.78057028 -25.16158497 28.25455968 -25.14648438 24.72851562 C-25.11437868 17.81885376 -25.06322281 10.90944531 -25 4 C-22.67578125 3.84375 -22.67578125 3.84375 -20 4 C-17.1875 6.5 -17.1875 6.5 -15 9 C-14.79375 8.443125 -14.5875 7.88625 -14.375 7.3125 C-10.88571639 1.44415939 -6.82543456 -1.2409881 0 0 Z " fill="#0A0A0A" transform="translate(186,241)"/>
<path d="M0 0 C6.68562525 2.79863383 12.52108291 6.34619158 15.6875 13.125 C16 16.5625 16 16.5625 15.6875 19.125 C10.95808037 17.8730948 8.95228673 15.34052838 6.1171875 11.5859375 C5.64539063 11.10382813 5.17359375 10.62171875 4.6875 10.125 C3.6975 10.125 2.7075 10.125 1.6875 10.125 C-0.97725554 16.69171901 -1.61165875 22.04490958 -1.3125 29.125 C1.9875 25.825 5.2875 22.525 8.6875 19.125 C13.6875 21.125 13.6875 21.125 15 23.75 C15.226875 24.53375 15.45375 25.3175 15.6875 26.125 C26.4506137 22.34586886 32.51501035 11.13076359 38.6875 2.125 C40.640625 2.9921875 40.640625 2.9921875 42.6875 4.125 C43.4375 6.25 43.4375 6.25 43.6875 8.125 C44.30625 7.17625 44.925 6.2275 45.5625 5.25 C47.6875 2.125 47.6875 2.125 49.6875 0.125 C53.17283376 0.27331207 55.03523098 0.45023894 57.5 3 C59.86275543 7.22808867 60.3370553 11.37061604 59.6875 16.125 C56.09283156 23.04806515 52.00532218 25.68572594 44.6875 28.125 C44.0275 34.725 43.3675 41.325 42.6875 48.125 C38.6875 49.125 38.6875 49.125 36.4296875 47.98828125 C34.6875 46.125 34.6875 46.125 34.4453125 43.98046875 C34.56648438 43.10003906 34.68765625 42.21960938 34.8125 41.3125 C34.93753906 40.26964844 35.06257813 39.22679687 35.19140625 38.15234375 C35.2702002 37.53987793 35.34899414 36.92741211 35.43017578 36.29638672 C35.97874993 31.66733693 36.3411389 27.01806841 36.75 22.375 C36.92757779 20.42180141 37.10590343 18.46867058 37.28515625 16.515625 C37.40129272 15.2476709 37.40129272 15.2476709 37.51977539 13.95410156 C37.57512451 13.35049805 37.63047363 12.74689453 37.6875 12.125 C37.0275 12.125 36.3675 12.125 35.6875 12.125 C35.31044922 13.42244141 35.31044922 13.42244141 34.92578125 14.74609375 C33.6215255 18.30502504 31.99220781 21.05014617 29.875 24.1875 C29.20855469 25.18910156 28.54210937 26.19070312 27.85546875 27.22265625 C22.24248258 34.73697828 22.24248258 34.73697828 18.58984375 35.6484375 C12.94954646 35.22233154 12.94954646 35.22233154 10.5 34.3125 C9.6028125 34.2196875 9.6028125 34.2196875 8.6875 34.125 C5.95823609 36.43756494 5.95823609 36.43756494 3.6875 39.125 C2.6875 40.125 2.6875 40.125 -1.0625 40.375 C-4.90897921 40.33356575 -7.2326549 39.55154462 -10.3125 37.125 C-13.77876835 30.1924633 -11.64253017 17.97703161 -9.625 10.875 C-5.86757545 0.31716624 -5.86757545 0.31716624 0 0 Z " fill="#060606" transform="translate(273.3125,167.875)"/>
<path d="M0 0 C2.4375 0.125 2.4375 0.125 5 1 C6.3125 3.5625 6.3125 3.5625 7 6 C6.67 6.33 6.34 6.66 6 7 C5.90541433 10.97994061 6.14821133 14.96081403 6.3125 18.9375 C6.34794922 20.04158203 6.38339844 21.14566406 6.41992188 22.28320312 C6.68718782 29.03665444 7.42727263 35.42390015 9 42 C18.07347475 42.91878672 18.07347475 42.91878672 26.25 39.8125 C31.01557385 31.84505622 30.27222026 20.37560185 30.65625 11.3125 C30.98389376 8.15520558 31.65855963 5.85596983 33 3 C35.91517292 4.07401108 37.77810176 4.77810176 40 7 C40.33837895 9.71719423 40.56199555 12.35715963 40.7109375 15.0859375 C40.82257296 16.75653342 40.9345642 18.4271056 41.046875 20.09765625 C41.21252236 22.72121816 41.37324461 25.34491493 41.52636719 27.96923828 C42.08074351 37.24709687 42.60241882 45.77479243 46.18212891 54.47900391 C47.14483726 57.44644463 47.20497059 59.89892206 47 63 C46 64 46 64 43.25 64.3125 C39.04861979 63.90852113 37.87689296 63.09819242 35 60 C33.14439136 56.74758706 31.53176352 53.41550675 30 50 C28.7315625 50.495 28.7315625 50.495 27.4375 51 C22.39998726 52.46545825 18.02293279 52.37088777 13 51 C12.93941406 51.63808594 12.87882813 52.27617187 12.81640625 52.93359375 C12.73261719 53.75988281 12.64882812 54.58617187 12.5625 55.4375 C12.48128906 56.26121094 12.40007812 57.08492187 12.31640625 57.93359375 C12 60 12 60 11 61 C7.41391366 61.29076376 4.94099478 61.13945317 2 59 C1.20703125 56.1015625 1.20703125 56.1015625 0.8125 52.625 C0.34963449 48.31926232 0.34963449 48.31926232 -0.50268555 44.08569336 C-1.45067559 40.10990594 -1.4388079 36.00827298 -1.625 31.9375 C-1.66931152 30.97046143 -1.71362305 30.00342285 -1.75927734 29.00708008 C-2.01571356 22.37814977 -1.97690643 15.81165865 -1.625 9.1875 C-1.58197754 8.37595459 -1.53895508 7.56440918 -1.49462891 6.72827148 C-1.13887963 1.13887963 -1.13887963 1.13887963 0 0 Z " fill="#070707" transform="translate(210,153)"/>
<path d="M0 0 C1.32 0.66 2.64 1.32 4 2 C4.36036639 8.53279577 2.99054152 14.45909215 1.5625 20.8125 C-0.0902902 28.20607407 -1.44676776 35.43635994 -2 43 C-1.21625 42.175 -0.4325 41.35 0.375 40.5 C3 38 3 38 5 38 C5 37.01 5 36.02 5 35 C9.875 35.875 9.875 35.875 11 37 C11.390625 39.15625 11.390625 39.15625 11 42 C9.31727839 44.34420527 7.68001606 46.38336661 5.75 48.5 C4.28139778 50.16133217 2.81435529 51.82374757 1.35522461 53.4934082 C0.20084662 54.7767205 -1.02419084 55.9958885 -2.26171875 57.19921875 C-4.98942132 61.5941912 -5.0837985 66.23312363 -5.5625 71.3125 C-6.26273191 78.37354826 -7.17809804 84.45725225 -10 91 C-12.31 91 -14.62 91 -17 91 C-20.98394047 84.1941017 -21.2760343 76.68790849 -20 69 C-18.23612429 65.82422377 -16.22341896 63.24351861 -13.90625 60.453125 C-11.02772814 56.74879768 -10.49514375 53.5800797 -10 49 C-9.81910806 47.55320972 -9.63666517 46.10661296 -9.453125 44.66015625 C-8.92993076 40.44392932 -8.45586311 36.22400816 -8 32 C-9.98974609 32.03662109 -11.97949219 32.07324219 -13.96923828 32.10986328 C-17.06100551 31.94260009 -18.69597279 31.03296519 -21 29 C-24.83667165 21.50935535 -23.03678261 12.03506525 -22 4 C-20.1875 3.3125 -20.1875 3.3125 -18 3 C-16.26171875 3.92578125 -16.26171875 3.92578125 -15 6 C-14.78285759 8.81127043 -14.71715724 11.3883345 -14.8125 14.1875 C-14.82603516 14.93708984 -14.83957031 15.68667969 -14.85351562 16.45898438 C-14.88881461 18.30629767 -14.94262083 20.15324066 -15 22 C-11.92968562 19.07808415 -9.43400029 16.46570772 -7.5 12.6875 C-5.19353102 8.32351424 -2.66091459 4.15555597 0 0 Z " fill="#050505" transform="translate(459,243)"/>
<path d="M0 0 C4.02308061 0.5486019 5.21508893 2.25510946 7.75 5.375 C11.60917715 11.61622098 14.42678667 18.93034658 13.75 26.375 C13.42 26.705 13.09 27.035 12.75 27.375 C12.50338042 32.30739162 12.49931087 35.87362174 14.75 40.375 C17.06 40.705 19.37 41.035 21.75 41.375 C21.26812367 45.95282516 21.26812367 45.95282516 19.0625 47.75 C14.84273553 48.89047688 10.88146166 47.41676943 6.75 46.375 C6.42386719 46.92929687 6.09773438 47.48359375 5.76171875 48.0546875 C5.32472656 48.77914062 4.88773438 49.50359375 4.4375 50.25 C4.00824219 50.96929687 3.57898438 51.68859375 3.13671875 52.4296875 C1.75 54.375 1.75 54.375 -1.25 56.375 C-5.31789098 56.53232175 -9.10883764 55.94558118 -12.75 54.125 C-16.3037389 49.97897128 -15.9086157 42.71545979 -15.52392578 37.51318359 C-14.44034958 29.05510841 -10.57899168 1.76316528 0 0 Z " fill="#080808" transform="translate(193.25,368.625)"/>
<path d="M0 0 C3 1 3 1 4 3 C3.93290134 5.31490367 3.79306582 7.6277305 3.625 9.9375 C3.06770289 18.14087676 2.73020528 26.34569046 2.4375 34.5625 C2.39383301 35.78251709 2.35016602 37.00253418 2.30517578 38.25952148 C2.20196065 41.17296537 2.10015631 44.08644959 2 47 C2.72445312 46.4946875 3.44890625 45.989375 4.1953125 45.46875 C5.64550781 44.49421875 5.64550781 44.49421875 7.125 43.5 C8.07632813 42.8503125 9.02765625 42.200625 10.0078125 41.53125 C13.32626036 39.83303647 15.32475839 39.61649653 19 40 C20 41 20 41 20.32421875 43.2421875 C19.88493507 46.97874507 18.36404881 48.40279295 15.8125 51.125 C15.03519531 51.97320312 14.25789063 52.82140625 13.45703125 53.6953125 C9.86064395 57.06871235 7.51451526 59.02704492 2.5 58.9375 C-1.24483282 57.93441978 -3.19932226 56.6309397 -6 54 C-6.5775 54.28875 -7.155 54.5775 -7.75 54.875 C-8.4925 55.24625 -9.235 55.6175 -10 56 C-10.61875 56.37125 -11.2375 56.7425 -11.875 57.125 C-16.12332628 58.87431082 -19.16087381 58.32632685 -23.375 56.6875 C-26.31846118 53.67395642 -26.46216082 53.03026958 -26.625 49 C-26.1047825 39.96273323 -23.56973819 31.39685035 -17 25 C-14.2540274 23.6270137 -12.0410953 23.87587366 -9 24 C-8.01 24.33 -7.02 24.66 -6 25 C-5.92483154 24.42032471 -5.84966309 23.84064941 -5.7722168 23.2434082 C-5.42241246 20.59806249 -5.05513173 17.95542466 -4.6875 15.3125 C-4.56955078 14.40048828 -4.45160156 13.48847656 -4.33007812 12.54882812 C-3.64671418 7.73023618 -3.00183709 3.99404095 0 0 Z " fill="#070707" transform="translate(246,359)"/>
<path d="M0 0 C4.875 0.875 4.875 0.875 6 2 C6.10176926 4.82260042 6.14072122 7.61498009 6.125 10.4375 C6.12306641 11.2526709 6.12113281 12.0678418 6.11914062 12.90771484 C6.07794106 18.66306512 5.73711847 24.28733188 5 30 C6.32 30.66 7.64 31.32 9 32 C9 32.66 9 33.32 9 34 C7.7934375 34.63228516 7.7934375 34.63228516 6.5625 35.27734375 C3.77452728 36.75465986 3.77452728 36.75465986 3.25 39.56640625 C3.1675 40.55511719 3.085 41.54382813 3 42.5625 C2.02690289 50.06535155 -0.34189022 55.99213893 -5.375 61.6875 C-8.94270909 63.47135455 -11.19751471 62.95062132 -15 62 C-16.5414942 60.4585058 -16.20646315 59.01556186 -16.25 56.875 C-16.11028714 48.03117619 -11.08052289 41.08052289 -5 35 C-4.53993654 32.79749008 -4.53993654 32.79749008 -4.375 30.375 C-4.30023438 29.55773437 -4.22546875 28.74046875 -4.1484375 27.8984375 C-4.09945313 27.27195313 -4.05046875 26.64546875 -4 26 C-4.32871094 26.5053125 -4.65742188 27.010625 -4.99609375 27.53125 C-8.73313224 32.6354977 -8.73313224 32.6354977 -12.2265625 33.640625 C-16.53381811 33.84230252 -18.48759232 33.38430576 -22 30.75 C-25.38207682 26.09964437 -25.15609894 21.80085788 -25.125 16.1875 C-25.12886719 15.50107422 -25.13273437 14.81464844 -25.13671875 14.10742188 C-25.12826847 9.64144643 -24.72583566 5.40685936 -24 1 C-21.13275314 1.57344937 -20.1385485 1.8614515 -18 4 C-17.58935547 5.87939453 -17.58935547 5.87939453 -17.3671875 8.1328125 C-17.28339844 8.93847656 -17.19960938 9.74414062 -17.11328125 10.57421875 C-17.03464844 11.41597656 -16.95601563 12.25773438 -16.875 13.125 C-16.78863281 13.97449219 -16.70226562 14.82398438 -16.61328125 15.69921875 C-16.40097443 17.79869727 -16.19946397 19.89926242 -16 22 C-12.95765187 19.06557301 -10.28815157 16.24323554 -8 12.6875 C-7.50242187 11.91921875 -7.00484375 11.1509375 -6.4921875 10.359375 C-5.99976563 9.58078125 -5.50734375 8.8021875 -5 8 C-4.50757813 7.22140625 -4.01515625 6.4428125 -3.5078125 5.640625 C-2.33064953 3.76514502 -1.16107778 1.88546702 0 0 Z " fill="#060606" transform="translate(395,165)"/>
<path d="M0 0 C7.75982486 0.22453197 12.24381419 1.40132867 17.6953125 7.0625 C22.38350559 12.91728997 22.0109699 19.94587273 21.375 27.16015625 C18.85950534 34.30945686 13.83898844 39.36607608 7.375 43.16015625 C4.0096364 44.28194412 1.3546245 44.32786784 -2.1875 44.34765625 C-3.34378906 44.36183594 -4.50007813 44.37601562 -5.69140625 44.390625 C-8.625 44.16015625 -8.625 44.16015625 -10.625 42.16015625 C-11.53533401 28.48618087 -7.52959806 14.13383016 -3.625 1.16015625 C-2.625 0.16015625 -2.625 0.16015625 0 0 Z " fill="#080808" transform="translate(369.625,238.83984375)"/>
<path d="M0 0 C-1.46760091 10.49613308 -12.02342775 21.25400894 -19.4375 28.4375 C-22.18168052 30.79968558 -22.18168052 30.79968558 -23 34 C-10.65502527 31.07068396 -1.69380664 21.80509129 7.31298828 13.34887695 C20.48539217 1 20.48539217 1 25 1 C23.33704847 4.80365709 20.8673161 7.892803 18.3125 11.125 C10.50369257 20.41560965 10.50369257 20.41560965 5 31 C13.09863433 29.47822638 19.75857367 26.25224018 26.80834961 22.13696289 C31.6378076 19.40426007 35.4504746 18.36124857 41 18 C38.39053269 21.13504906 35.425596 22.24290807 31.6875 23.75 C27.78174391 25.34433282 23.94717458 26.98101937 20.2109375 28.9453125 C19.59903564 29.26661133 18.98713379 29.58791016 18.35668945 29.91894531 C16.64996352 30.82839405 14.95167785 31.75363026 13.25390625 32.6796875 C9.60732278 34.15933361 6.89869885 34.24644114 3 34 C2.25390625 31.89453125 2.25390625 31.89453125 2 29 C3.65234375 25.88671875 3.65234375 25.88671875 5.9375 22.6875 C7.06478516 21.08455078 7.06478516 21.08455078 8.21484375 19.44921875 C8.80394531 18.64097656 9.39304687 17.83273437 10 17 C7.5482254 17 4.50119084 20.90401995 2.625 22.5625 C-14.14827851 37.19703443 -14.14827851 37.19703443 -24 37 C-28.58379335 37 -29.50443534 37.77029316 -33.0625 40.4375 C-37.47518867 43.72213292 -40.40745637 45.14592072 -45.9375 45.1875 C-46.79214844 45.20167969 -47.64679688 45.21585937 -48.52734375 45.23046875 C-51.13909303 44.98703556 -52.75500652 44.3178268 -55 43 C-55.53109375 43.48210937 -56.0621875 43.96421875 -56.609375 44.4609375 C-57.31578125 45.09257812 -58.0221875 45.72421875 -58.75 46.375 C-59.44609375 47.00148438 -60.1421875 47.62796875 -60.859375 48.2734375 C-64.46895666 51.18481541 -66.27534866 52 -71 52 C-71 51.34 -71 50.68 -71 50 C-70.01 49.649375 -69.02 49.29875 -68 48.9375 C-62.40318385 46.56654733 -58.24374537 42.24374537 -54 38 C-53.73521649 36.29950147 -53.53838577 34.58821646 -53.375 32.875 C-51.74787891 22.241059 -46.12179484 11.02422632 -38.67578125 3.21875 C-37 2 -37 2 -33.5625 1.5 C-32.2940625 1.7475 -32.2940625 1.7475 -31 2 C-29.94313508 12.56864916 -34.66889495 20.28474366 -41.0625 28.4375 C-43.25847934 31.07183222 -45.49243305 33.53791919 -48 35.875 C-50.4569098 37.9991076 -50.4569098 37.9991076 -50 42 C-43.50619596 43.01421668 -39.50903474 42.17480218 -34.125 38.3125 C-28.25716703 33.77048934 -24.76590719 28.79949406 -21.25 22.3125 C-17.74720425 16.0117747 -13.77001105 10.4265287 -9 5 C-8.51402344 4.43152344 -8.02804687 3.86304688 -7.52734375 3.27734375 C-4.80148609 0.2847355 -4.28974258 0 0 0 Z " fill="#1A1A1A" transform="translate(459,421)"/>
<path d="M0 0 C1.32 0.66 2.64 1.32 4 2 C4 10.91 4 19.82 4 29 C5.98 28.01 7.96 27.02 10 26 C11.216875 25.7525 12.43375 25.505 13.6875 25.25 C17.26468033 24.29154887 17.26468033 24.29154887 18.875 20.875 C20.20987676 16.98502171 20.64179358 13.08355324 21 9 C21.66 9 22.32 9 23 9 C23.33 7.68 23.66 6.36 24 5 C26.86724686 5.57344937 27.8614515 5.8614515 30 8 C30.24291992 9.98022461 30.24291992 9.98022461 30.23046875 12.40234375 C30.22934082 13.28809082 30.22821289 14.17383789 30.22705078 15.08642578 C30.21399902 16.02728027 30.20094727 16.96813477 30.1875 17.9375 C30.17960449 18.88866699 30.17170898 19.83983398 30.16357422 20.81982422 C29.94801099 38.57798351 29.94801099 38.57798351 27 43 C23.535 42.505 23.535 42.505 20 42 C19.67 39.03 19.34 36.06 19 33 C16.68632778 33.64185745 14.3741043 34.28827392 12.0625 34.9375 C11.0734668 35.21110352 11.0734668 35.21110352 10.06445312 35.49023438 C6.76178827 36.22596101 6.76178827 36.22596101 4 38 C3.86867443 39.60217196 3.76976991 41.20706141 3.6875 42.8125 C3.36971438 46.2250286 3.15186716 47.76677543 1.25 50.6875 C-1 52 -1 52 -3.6875 51.8125 C-6 51 -6 51 -7 50 C-7.80224107 36.54846942 -5.86468253 23.39093714 -3.5 10.1875 C-3.32247192 9.17345093 -3.32247192 9.17345093 -3.14135742 8.13891602 C-2.51722263 4.83121321 -1.89916525 2.84874787 0 0 Z " fill="#050505" transform="translate(321,240)"/>
<path d="M0 0 C2.91611944 1.84891489 5.42997066 3.85994132 7 7 C7.23076923 12.53846154 7.23076923 12.53846154 6 15 C5.2117215 25.61828519 5.2117215 25.61828519 9.625 34.875 C10.07875 35.24625 10.5325 35.6175 11 36 C10.67 36.99 10.34 37.98 10 39 C4.64951939 38.62671065 2.49087093 37.0042343 -1 33 C-1.61875 33.66708984 -1.61875 33.66708984 -2.25 34.34765625 C-6.79185536 38.79826898 -6.79185536 38.79826898 -10.10546875 39.3515625 C-13.58957023 39.07701792 -15.78942134 38.16846293 -18.5 36 C-20.58555683 31.82888634 -20.34401243 28.56938247 -20 24 C-20.00257813 23.26394531 -20.00515625 22.52789062 -20.0078125 21.76953125 C-19.76141652 14.03543514 -15.46836591 8.81007684 -10.4140625 3.2578125 C-7.0432204 0.10099212 -4.52982683 -0.94371392 0 0 Z " fill="#121212" transform="translate(329,376)"/>
<path d="M0 0 C4.61984804 0.92396961 7.00599012 2.71065302 9.75 6.5 C11.88075205 13.2796656 9.57582037 18.4201563 6.5390625 24.48046875 C6.36758624 28.20677983 8.99230244 30.57515628 11.25 33.3125 C11.71470703 33.89773438 12.17941406 34.48296875 12.65820312 35.0859375 C14.49865317 37.38848046 16.35209778 39.60209778 18.4375 41.6875 C18.5625 44.3125 18.5625 44.3125 18.4375 46.6875 C15.37940874 47.22266597 13.23986499 47.16792842 10.5390625 45.55078125 C5.24698037 41.23135453 1.72119793 36.00843078 -1.8984375 30.26171875 C-3.45717453 27.65285224 -3.45717453 27.65285224 -5.5625 25.6875 C-5.1875 22.0625 -5.1875 22.0625 -4.5625 18.6875 C-2.2525 18.0275 0.0575 17.3675 2.4375 16.6875 C2.4375 13.3875 2.4375 10.0875 2.4375 6.6875 C-1.52528474 7.23465504 -1.52528474 7.23465504 -2.9765625 9.55078125 C-8.72796086 21.18344825 -8.84776103 32.9138702 -9.22167969 45.67431641 C-9.25293945 46.69315918 -9.28419922 47.71200195 -9.31640625 48.76171875 C-9.34033447 49.68557373 -9.3642627 50.60942871 -9.38891602 51.5612793 C-9.5625 53.6875 -9.5625 53.6875 -10.5625 54.6875 C-13 54.875 -13 54.875 -15.5625 54.6875 C-18.06949216 52.18050784 -17.84604451 50.603717 -17.89111328 47.17651367 C-17.8857959 46.41701416 -17.88047852 45.65751465 -17.875 44.875 C-17.87226074 44.08907471 -17.86952148 43.30314941 -17.86669922 42.4934082 C-17.75700327 36.05476026 -17.09205222 29.74709272 -16.1875 23.375 C-16.06157471 22.48643311 -15.93564941 21.59786621 -15.8059082 20.68237305 C-14.49589658 12.17178665 -14.49589658 12.17178665 -12.5625 8.6875 C-11.5725 8.3575 -10.5825 8.0275 -9.5625 7.6875 C-8.15524382 6.04089475 -8.15524382 6.04089475 -6.8125 4.125 C-4.39542781 1.2101189 -3.90996012 0.75455371 0 0 Z " fill="#080808" transform="translate(256.5625,242.3125)"/>
<path d="M0 0 C6.76052435 5.06753348 10.70193382 12.68251192 14.42578125 20.078125 C15.76668038 22.56694027 17.03964777 24.43734828 18.9375 26.5 C21 29 21 29 21.3125 31.875 C21.209375 32.57625 21.10625 33.2775 21 34 C12.80743982 33.64989059 12.80743982 33.64989059 9.4375 30.9375 C8.963125 30.298125 8.48875 29.65875 8 29 C7.21625 29.969375 6.4325 30.93875 5.625 31.9375 C4.08711295 33.83962346 3.20740087 34.89629957 1 36 C-2.85550323 36.36372672 -5.25809222 36.39775691 -8.703125 34.55078125 C-12.06155439 30.82109691 -11.63781076 27.7237401 -11.4375 22.875 C-11.41792236 22.02421875 -11.39834473 21.1734375 -11.37817383 20.296875 C-10.91674075 5.79706793 -10.91674075 5.79706793 -7.80078125 1.25 C-5.06866383 -0.64648064 -3.24607081 -0.47193191 0 0 Z " fill="#040404" transform="translate(411,244)"/>
<path d="M0 0 C2.9375 1.25 2.9375 1.25 5 3 C5.495 4.98 5.495 4.98 6 7 C-1.92 10.96 -1.92 10.96 -10 15 C-10.16435547 19.18816406 -10.16435547 19.18816406 -10.33203125 23.4609375 C-10.44777849 26.15837163 -10.56849365 28.85554057 -10.68969727 31.55273438 C-10.77140041 33.43044478 -10.84791947 35.3083881 -10.91918945 37.18652344 C-11.02240496 39.88293967 -11.14411002 42.5779744 -11.26953125 45.2734375 C-11.3119268 46.53756973 -11.3119268 46.53756973 -11.35517883 47.82723999 C-11.47583008 50.19287109 -11.47583008 50.19287109 -12 54 C-15 56 -15 56 -17.625 55.6875 C-20 55 -20 55 -21 54 C-21.02630564 52.4804733 -20.98785779 50.95972758 -20.921875 49.44140625 C-19.93836196 34.80720064 -19.93836196 34.80720064 -26 22 C-27.30121966 20.95855621 -28.62830942 19.94670098 -30 19 C-29.66388788 16.12741035 -29.45168828 14.45921984 -27.3894043 12.36254883 C-26.70789307 11.89872803 -26.02638184 11.43490723 -25.32421875 10.95703125 C-24.57849609 10.44076172 -23.83277344 9.92449219 -23.06445312 9.39257812 C-22.28005859 8.87115234 -21.49566406 8.34972656 -20.6875 7.8125 C-19.91470703 7.27947266 -19.14191406 6.74644531 -18.34570312 6.19726562 C-12.20945613 2.00266858 -7.75166913 -0.99971923 0 0 Z " fill="#090909" transform="translate(306,240)"/>
<path d="M0 0 C0.78375 0.04125 1.5675 0.0825 2.375 0.125 C3.41667441 4.22225269 3.31909525 7.73995224 2.9375 11.9375 C2.83566406 13.09894531 2.73382813 14.26039063 2.62890625 15.45703125 C2.54511719 16.33746094 2.46132813 17.21789062 2.375 18.125 C3.035 18.125 3.695 18.125 4.375 18.125 C4.75785156 17.28195312 4.75785156 17.28195312 5.1484375 16.421875 C6.53192781 13.83113518 8.17438583 11.67392155 10 9.375 C10.94746094 8.17617188 10.94746094 8.17617188 11.9140625 6.953125 C12.39617187 6.34984375 12.87828125 5.7465625 13.375 5.125 C17.25 6.875 17.25 6.875 18.375 9.125 C19.695 9.125 21.015 9.125 22.375 9.125 C22.705 7.805 23.035 6.485 23.375 5.125 C25.5625 4.375 25.5625 4.375 28.375 4.125 C32.68235988 6.48379232 34.37546935 9.39009396 35.8828125 13.88671875 C36.70711393 17.63532762 36.61333638 21.31161785 36.375 25.125 C34 25.3125 34 25.3125 31.375 25.125 C29.26672945 21.96259418 29.03682535 20.61842531 28.75 16.9375 C28.67523438 16.03644531 28.60046875 15.13539063 28.5234375 14.20703125 C28.47445312 13.51996094 28.42546875 12.83289063 28.375 12.125 C27.715 12.125 27.055 12.125 26.375 12.125 C26.1275 12.970625 25.88 13.81625 25.625 14.6875 C24.16302206 18.70793933 22.89967997 21.64503571 20.375 25.125 C16.75 26.1875 16.75 26.1875 13.375 26.125 C11.2364515 23.9864515 10.94844937 22.99224686 10.375 20.125 C9.6015625 21.3625 9.6015625 21.3625 8.8125 22.625 C6.375 25.125 6.375 25.125 2.8125 25.6875 C-0.625 25.125 -0.625 25.125 -2.5625 23.5 C-3.87566255 20.56469547 -3.84191118 18.30636394 -3.625 15.125 C-4.285 15.125 -4.945 15.125 -5.625 15.125 C-5.73714844 15.69734375 -5.84929687 16.2696875 -5.96484375 16.859375 C-6.69723034 19.37289112 -7.76354853 21.18430543 -9.1875 23.375 C-9.64253906 24.08140625 -10.09757812 24.7878125 -10.56640625 25.515625 C-11.09041016 26.31226563 -11.09041016 26.31226563 -11.625 27.125 C-12.945 26.795 -14.265 26.465 -15.625 26.125 C-15.04203874 22.55519875 -14.10080184 19.74286416 -12.41015625 16.55078125 C-11.97123047 15.71869141 -11.53230469 14.88660156 -11.08007812 14.02929688 C-10.62052734 13.17400391 -10.16097656 12.31871094 -9.6875 11.4375 C-9.23181641 10.57060547 -8.77613281 9.70371094 -8.30664062 8.81054688 C-3.71777901 0.1770371 -3.71777901 0.1770371 0 0 Z " fill="#090909" transform="translate(293.625,324.875)"/>
<path d="M0 0 C1.875 0.5625 1.875 0.5625 4 2 C5.1875 5.375 5.1875 5.375 6 9 C6.20625 9.804375 6.4125 10.60875 6.625 11.4375 C6.74875 11.953125 6.8725 12.46875 7 13 C10.40312738 11.94124926 13.01353231 10.99097846 16 9 C18.6875 8.875 18.6875 8.875 21 9 C20.4975516 13.39642348 19.02704059 15.7948982 16 19 C12.49852959 20.1671568 9.67329964 20.13357453 6 20 C5.34 19.67 4.68 19.34 4 19 C3.81824219 19.97839844 3.63648438 20.95679688 3.44921875 21.96484375 C-0.20910621 41.20910621 -0.20910621 41.20910621 -3 44 C-6.70261914 43.79041778 -9.20616122 43.62989382 -12.15625 41.2890625 C-17.33987371 34.85346188 -16.29652077 22.80175697 -16.75 14.8125 C-16.80696045 13.87929932 -16.8639209 12.94609863 -16.92260742 11.98461914 C-16.96361572 11.10926514 -17.00462402 10.23391113 -17.046875 9.33203125 C-17.08651367 8.54546143 -17.12615234 7.7588916 -17.16699219 6.94848633 C-17 5 -17 5 -15 3 C-13 3 -13 3 -11 4 C-9.04797921 8.69930932 -8.42748234 13.36643062 -7.875 18.375 C-7.78863281 19.11105469 -7.70226562 19.84710938 -7.61328125 20.60546875 C-7.40318115 22.40299182 -7.20079233 24.20141342 -7 26 C-6.34 26 -5.68 26 -5 26 C-4.93941406 25.21753906 -4.87882812 24.43507813 -4.81640625 23.62890625 C-4.73261719 22.61699219 -4.64882813 21.60507812 -4.5625 20.5625 C-4.48128906 19.55316406 -4.40007812 18.54382813 -4.31640625 17.50390625 C-4 15 -4 15 -3 14 C-2.62819644 12.02769832 -2.30199332 10.04669048 -2 8.0625 C-1.10806175 2.2161235 -1.10806175 2.2161235 0 0 Z " fill="#080808" transform="translate(286,376)"/>
<path d="M0 0 C-0.49792089 4.74803135 -2.72618707 7.89526941 -5.5 11.625 C-6.16298096 12.53499756 -6.16298096 12.53499756 -6.83935547 13.46337891 C-11.01911091 19.14600121 -15.44741395 24.61167351 -20 30 C-13.35122762 26.84276172 -6.96387217 23.45909839 -0.6875 19.625 C4.55052816 16.44209962 9.81759016 13.33111922 15.1875 10.375 C15.81116455 10.02002441 16.4348291 9.66504883 17.07739258 9.29931641 C21.49714834 6.90464989 21.49714834 6.90464989 24.1965332 7.41650391 C24.79167725 7.60905762 25.38682129 7.80161133 26 8 C25.4016333 8.32162109 24.8032666 8.64324219 24.18676758 8.97460938 C12.92901273 15.03755849 1.82168422 21.18526372 -9 28 C-21.52798679 35.85290879 -21.52798679 35.85290879 -28 36 C-26.46864215 32.41036546 -24.31525316 30.05343533 -21.625 27.25 C-15.15473921 20.27838859 -9.60347295 12.67348444 -4 5 C-6.81521228 6.28068063 -8.8446084 7.60265713 -11.00512695 9.80981445 C-11.56283279 10.37412674 -12.12053864 10.93843903 -12.69514465 11.51985168 C-13.58274727 12.43234932 -13.58274727 12.43234932 -14.48828125 13.36328125 C-15.10970505 13.99227829 -15.73112885 14.62127533 -16.37138367 15.26933289 C-19.02239854 17.95292526 -21.66152245 20.64809858 -24.30151367 23.3425293 C-26.23455273 25.31198203 -28.17375162 27.2752234 -30.11328125 29.23828125 C-30.69894363 29.84054031 -31.28460602 30.44279938 -31.88801575 31.06330872 C-35.66227847 34.88153497 -39.43798132 38.14508958 -44 41 C-45.32 41 -46.64 41 -48 41 C-47.51117637 35.96135638 -45.96881941 32.98484047 -43.0625 28.875 C-40.79606081 25.64193067 -38.71466136 22.55291905 -37 19 C-37.50450684 19.51498047 -38.00901367 20.02996094 -38.52880859 20.56054688 C-40.80568564 22.87885984 -43.09020471 25.18949158 -45.375 27.5 C-46.1690625 28.31082031 -46.963125 29.12164062 -47.78125 29.95703125 C-48.54179687 30.72402344 -49.30234375 31.49101562 -50.0859375 32.28125 C-50.7876709 32.99345703 -51.4894043 33.70566406 -52.21240234 34.43945312 C-54 36 -54 36 -56 36 C-55.67 34.02 -55.34 32.04 -55 30 C-55.66386719 30.33773438 -56.32773438 30.67546875 -57.01171875 31.0234375 C-57.89472656 31.46945312 -58.77773437 31.91546875 -59.6875 32.375 C-60.55761719 32.81585938 -61.42773438 33.25671875 -62.32421875 33.7109375 C-67.31890808 36.1171382 -71.22864933 37.28658481 -76.8125 37.625 C-77.97394531 37.69976562 -79.13539063 37.77453125 -80.33203125 37.8515625 C-81.21246094 37.90054688 -82.09289062 37.94953125 -83 38 C-82.67 37.34 -82.34 36.68 -82 36 C-78.39216444 35.16625649 -74.7908284 34.46798758 -71.140625 33.8515625 C-63.85133861 32.42749662 -57.66252433 29.76361326 -53.26318359 23.54492188 C-51.6945715 20.78463948 -50.29304292 17.99556149 -48.9375 15.125 C-48.45345703 14.15046875 -47.96941406 13.1759375 -47.47070312 12.171875 C-46.29189603 9.79091809 -45.13613621 7.40153151 -44 5 C-43.34 5 -42.68 5 -42 5 C-42.59084404 8.52055917 -43.5155542 11.43361222 -45.06640625 14.64453125 C-45.6706543 15.90620117 -45.6706543 15.90620117 -46.28710938 17.19335938 C-46.70798828 18.05767578 -47.12886719 18.92199219 -47.5625 19.8125 C-47.98724609 20.69615234 -48.41199219 21.57980469 -48.84960938 22.49023438 C-49.89471424 24.66264337 -50.94496762 26.83239957 -52 29 C-45.45804816 23.45108178 -39.44468415 17.49656671 -33.47265625 11.34570312 C-32.79332031 10.65541016 -32.11398438 9.96511719 -31.4140625 9.25390625 C-30.8051416 8.62814697 -30.1962207 8.0023877 -29.56884766 7.35766602 C-28 6 -28 6 -26 6 C-26.64152946 9.97496686 -28.6171329 12.7547786 -30.81640625 16.078125 C-31.19232407 16.64956238 -31.56824188 17.22099976 -31.95555115 17.80975342 C-33.15258243 19.62672336 -34.35739567 21.43837698 -35.5625 23.25 C-36.37747264 24.48403206 -37.19193172 25.71840345 -38.00585938 26.953125 C-39.99797102 29.97270435 -41.9970931 32.98756724 -44 36 C-36.19550246 32.28631282 -30.22523572 25.4682425 -24.6953125 18.9609375 C-8.30278884 0 -8.30278884 0 0 0 Z " fill="#0F0F0F" transform="translate(208,317)"/>
<path d="M0 0 C3.48533376 0.14831207 5.34773098 0.32523894 7.8125 2.875 C10.17525543 7.10308867 10.6495553 11.24561604 10 16 C6.40533156 22.92306515 2.31782218 25.56072594 -5 28 C-5.66 34.6 -6.32 41.2 -7 48 C-11 49 -11 49 -13.26171875 47.9140625 C-15 46 -15 46 -15.20703125 43.3984375 C-15.07683594 42.40070313 -14.94664062 41.40296875 -14.8125 40.375 C-14.68617188 39.29476562 -14.55984375 38.21453125 -14.4296875 37.1015625 C-14.28789062 36.07804687 -14.14609375 35.05453125 -14 34 C-13.20447464 28.18654547 -12.89655037 22.48931209 -12.875 16.625 C-12.87040771 15.92213867 -12.86581543 15.21927734 -12.86108398 14.49511719 C-12.87046988 11.39101458 -13.01099344 8.96701969 -14 6 C-12.5625 3.8125 -12.5625 3.8125 -11 2 C-9.0625 2.75 -9.0625 2.75 -7 4 C-6.25 6.125 -6.25 6.125 -6 8 C-5.38125 7.05125 -4.7625 6.1025 -4.125 5.125 C-2 2 -2 2 0 0 Z " fill="#090909" transform="translate(323,168)"/>
<path d="M0 0 C4.70588235 0.70588235 4.70588235 0.70588235 6 2 C6.32679222 3.30419804 6.610873 4.6191819 6.875 5.9375 C8.81938051 15.41344891 8.81938051 15.41344891 13 24 C13.99 24.33 14.98 24.66 16 25 C15.855625 24.26136719 15.71125 23.52273438 15.5625 22.76171875 C14.28019903 15.75358778 13.74777758 9.11827723 14 2 C16.91821641 2.31548286 18.56851299 2.59656932 20.7421875 4.62890625 C22.38558487 7.7268634 22.71680841 10.4604498 23.125 13.9375 C23.70456502 18.8263335 23.70456502 18.8263335 24.55078125 23.671875 C25.22185071 27.14976541 25.05994048 30.46351174 25 34 C19.34224053 34.58934994 16.36097845 33.44634329 11.6015625 30.38671875 C10 29 10 29 9 26 C8.34 26.33 7.68 26.66 7 27 C7 31.29 7 35.58 7 40 C-0.875 39.125 -0.875 39.125 -2 38 C-2.0990473 36.47392411 -2.13079611 34.94334793 -2.1328125 33.4140625 C-2.13410156 32.48335938 -2.13539063 31.55265625 -2.13671875 30.59375 C-2.13285156 29.6140625 -2.12898438 28.634375 -2.125 27.625 C-2.12886719 26.65304687 -2.13273437 25.68109375 -2.13671875 24.6796875 C-2.13542969 23.74640625 -2.13414062 22.813125 -2.1328125 21.8515625 C-2.13168457 20.99385254 -2.13055664 20.13614258 -2.12939453 19.25244141 C-2 17 -2 17 -1 14 C-0.95550861 11.7921149 -0.96083395 9.58298599 -1 7.375 C-1.03752174 5.25033129 -1.04682059 3.12448413 -1 1 C-0.67 0.67 -0.34 0.34 0 0 Z " fill="#090909" transform="translate(350,375)"/>
<path d="M0 0 C6.35294118 0.35294118 6.35294118 0.35294118 8.875 2.875 C11.48070579 7.79688872 11.49689617 12.55157712 11 18 C9.6875 20.9375 9.6875 20.9375 8 23 C7.608125 23.556875 7.21625 24.11375 6.8125 24.6875 C3.8480404 26.83417764 0.55626062 27.24210839 -3 28 C-3.06058594 29.13179687 -3.12117188 30.26359375 -3.18359375 31.4296875 C-3.26799917 32.91147145 -3.35264717 34.3932416 -3.4375 35.875 C-3.49647461 36.99455078 -3.49647461 36.99455078 -3.55664062 38.13671875 C-3.88671875 43.7734375 -3.88671875 43.7734375 -5 46 C-8.71599191 46.20086443 -9.77208445 46.1519437 -13 44 C-13.33953941 41.43663038 -13.47351635 39.18895092 -13.4375 36.625 C-13.43282715 35.90401123 -13.4281543 35.18302246 -13.42333984 34.44018555 C-13.27070652 28.8442508 -12.05160978 24.20131315 -10.0234375 18.97265625 C-8.2421852 13.79886619 -7.66356798 8.41331773 -7 3 C-5.5459375 2.5359375 -5.5459375 2.5359375 -4.0625 2.0625 C-1.15934208 1.30476658 -1.15934208 1.30476658 0 0 Z " fill="#080808" transform="translate(351,169)"/>
<path d="M0 0 C2.98511537 0.24203638 4.68005405 0.75490933 7.0703125 2.5859375 C9.62365189 5.78019609 9.92925849 8.41900512 10.5625 12.4375 C11.3396831 17.2985148 12.03627499 21.00730444 15 25 C15.99 25.66 16.98 26.32 18 27 C17.125 31.875 17.125 31.875 16 33 C11.11163982 33.56156303 6.5651193 33.84365411 2.375 31 C1.199375 30.01 1.199375 30.01 0 29 C-0.309375 29.804375 -0.61875 30.60875 -0.9375 31.4375 C-2 34 -2 34 -3 35 C-5.4375 35.1875 -5.4375 35.1875 -8 35 C-10 33 -10 33 -10.07983398 31.16113281 C-9.37391107 25.41462798 -7.98909171 20.20174632 -6.0625 14.75 C-5.79759766 13.97398437 -5.53269531 13.19796875 -5.25976562 12.3984375 C-1.51869311 1.51869311 -1.51869311 1.51869311 0 0 Z " fill="#070707" transform="translate(211,265)"/>
<path d="M0 0 C1.38294718 0.01329757 2.76582404 0.03715018 4.1484375 0.0703125 C4.85484375 0.07933594 5.56125 0.08835937 6.2890625 0.09765625 C8.03399848 0.12123647 9.77876045 0.15710789 11.5234375 0.1953125 C12.1834375 1.5153125 12.8434375 2.8353125 13.5234375 4.1953125 C8.71094576 8.0453059 4.4182717 7.43110587 -1.4765625 7.1953125 C-1.4765625 10.4953125 -1.4765625 13.7953125 -1.4765625 17.1953125 C-0.4865625 16.8653125 0.5034375 16.5353125 1.5234375 16.1953125 C3.08462178 16.12790385 4.6484627 16.11016794 6.2109375 16.1328125 C7.42330078 16.14634766 7.42330078 16.14634766 8.66015625 16.16015625 C9.58248047 16.17755859 9.58248047 16.17755859 10.5234375 16.1953125 C10.8534375 17.8453125 11.1834375 19.4953125 11.5234375 21.1953125 C3.2614785 25.78756763 3.2614785 25.78756763 -1.4765625 25.1953125 C-1.1465625 26.1853125 -0.8165625 27.1753125 -0.4765625 28.1953125 C0.5134375 27.9478125 0.5134375 27.9478125 1.5234375 27.6953125 C5.31172251 27.06393167 8.67955737 27.00626922 12.5234375 27.1953125 C14.5234375 29.1953125 14.5234375 29.1953125 14.6484375 31.4453125 C12.86566517 35.80320041 9.60190199 37.99585486 5.5234375 40.1953125 C1.96781638 40.86965444 -0.08071619 41.05356935 -3.2109375 39.12890625 C-5.42102581 37.36609772 -7.20298326 35.74247098 -8.4765625 33.1953125 C-9.03986983 25.11401884 -8.58047758 17.33516054 -7.1015625 9.3828125 C-6.97555664 8.69558105 -6.84955078 8.00834961 -6.71972656 7.30029297 C-5.30408422 0.29798226 -5.30408422 0.29798226 0 0 Z " fill="#0B0B0B" transform="translate(423.4765625,372.8046875)"/>
<path d="M0 0 C-0.41062508 5.95406359 -1.30458971 9.14317505 -5 14 C-8.3895571 18.51298292 -8.3895571 18.51298292 -9 24 C-8.38511719 24.04898437 -7.77023438 24.09796875 -7.13671875 24.1484375 C-6.32847656 24.22320312 -5.52023438 24.29796875 -4.6875 24.375 C-3.88699219 24.44460938 -3.08648437 24.51421875 -2.26171875 24.5859375 C0 25 0 25 3 27 C3.95406532 31.70156515 3.62217977 36.54379868 1.375 40.8125 C-2.59719445 46.14360308 -6.40904656 49.27379791 -13 51 C-15.64945831 48.35054169 -14.36693304 39.76887218 -14.4050293 36.05737305 C-14.42640972 34.49692382 -14.46026934 32.93658774 -14.50756836 31.37670898 C-14.81507918 21.13473831 -14.40465528 12.58712498 -8 4 C-3.66179409 0 -3.66179409 0 0 0 Z " fill="#F1F1F1" transform="translate(185,248)"/>
<path d="M0 0 C4.69437801 1.56479267 5.83954626 3.10306939 8.5625 7.1875 C9.375 9.5625 9.375 9.5625 9.5625 11.1875 C8.2425 11.1875 6.9225 11.1875 5.5625 11.1875 C4.9025 10.1975 4.2425 9.2075 3.5625 8.1875 C2.5725 8.1875 1.5825 8.1875 0.5625 8.1875 C-3.51477892 15.83002747 -4.60677902 21.55426998 -4.4375 30.1875 C0.65195547 30.80440369 3.42003059 28.89603769 7.5625 26.1875 C7.8925 25.5275 8.2225 24.8675 8.5625 24.1875 C10.2125 24.5175 11.8625 24.8475 13.5625 25.1875 C13.33810344 30.79741399 12.07697236 33.31711642 8.1328125 37.0234375 C3.9574591 40.11859997 -1.49785201 39.7620512 -6.4375 39.1875 C-9.09802787 38.11106735 -11.06103416 36.84069362 -13.4375 35.1875 C-13.69323689 20.24109954 -13.69323689 20.24109954 -12.4375 14.1875 C-11.7775 13.5275 -11.1175 12.8675 -10.4375 12.1875 C-9.98375 11.094375 -9.53 10.00125 -9.0625 8.875 C-5.42953051 0.29615621 -5.42953051 0.29615621 0 0 Z " fill="#0A0A0A" transform="translate(396.4375,372.8125)"/>
<path d="M0 0 C-1.66295153 3.80365709 -4.1326839 6.892803 -6.6875 10.125 C-14.49630743 19.41560965 -14.49630743 19.41560965 -20 30 C-11.90136567 28.47822638 -5.24142633 25.25224018 1.80834961 21.13696289 C6.6378076 18.40426007 10.4504746 17.36124857 16 17 C13.39053269 20.13504906 10.425596 21.24290807 6.6875 22.75 C2.78174391 24.34433282 -1.05282542 25.98101937 -4.7890625 27.9453125 C-5.40096436 28.26661133 -6.01286621 28.58791016 -6.64331055 28.91894531 C-8.35003648 29.82839405 -10.04832215 30.75363026 -11.74609375 31.6796875 C-15.39267722 33.15933361 -18.10130115 33.24644114 -22 33 C-22.74609375 30.89453125 -22.74609375 30.89453125 -23 28 C-21.34765625 24.88671875 -21.34765625 24.88671875 -19.0625 21.6875 C-18.31097656 20.61886719 -17.55945313 19.55023438 -16.78515625 18.44921875 C-16.19605469 17.64097656 -15.60695313 16.83273437 -15 16 C-17.4517746 16 -20.49880916 19.90401995 -22.375 21.5625 C-39.16743849 36.21375134 -39.16743849 36.21375134 -49 36 C-49.33 35.34 -49.66 34.68 -50 34 C-49.35675781 33.82726562 -48.71351563 33.65453125 -48.05078125 33.4765625 C-35.75578735 29.65301233 -26.88186887 20.98065978 -17.68652344 12.34863281 C-4.51625948 0 -4.51625948 0 0 0 Z " fill="#191919" transform="translate(484,422)"/>
<path d="M0 0 C3.94659545 1.11820204 4.50336966 1.43329091 6.6875 4.625 C8.94884408 8.83966455 9.86405645 12.35972074 8.75 17.0625 C6.21220571 23.33713818 1.93757462 27.36999891 -4.25 30.0625 C-5.24 30.0625 -6.23 30.0625 -7.25 30.0625 C-5.78896714 0.11132629 -5.78896714 0.11132629 0 0 Z " fill="#F0F0F0" transform="translate(376.25,243.9375)"/>
<path d="M0 0 C1.299375 0.2475 1.299375 0.2475 2.625 0.5 C3.72158936 3.78976808 3.42453138 5.21303767 2.625 8.5 C1.965 8.5 1.305 8.5 0.625 8.5 C0.99044922 9.56347656 0.99044922 9.56347656 1.36328125 10.6484375 C1.72940404 14.63753655 0.25148842 16.02393942 -2.1875 19.125 C-3.27998047 20.53652344 -3.27998047 20.53652344 -4.39453125 21.9765625 C-5.04808594 22.80929687 -5.70164062 23.64203125 -6.375 24.5 C-7.035 25.49 -7.695 26.48 -8.375 27.5 C-10.025 27.17 -11.675 26.84 -13.375 26.5 C-14.07205326 17.08978093 -10.77426106 9.30505614 -4.96875 1.9296875 C-3.375 0.5 -3.375 0.5 0 0 Z " fill="#EFEFEF" transform="translate(327.375,382.5)"/>
<path d="M0 0 C0.66 0.33 1.32 0.66 2 1 C4.70827487 9.12482462 3.83590632 19.09539513 0.2109375 26.76953125 C-0.18867188 27.50558594 -0.58828125 28.24164063 -1 29 C-1.42023438 29.78761719 -1.84046875 30.57523437 -2.2734375 31.38671875 C-4.60384763 35.43315815 -4.60384763 35.43315815 -6 37 C-6.99 37 -7.98 37 -9 37 C-8.59695513 23.92119386 -6.58194867 11.51841017 0 0 Z " fill="#E6E6E6" transform="translate(195,378)"/>
<path d="M0 0 C0.09796875 1.25296875 0.1959375 2.5059375 0.296875 3.796875 C0.44697748 5.44800232 0.59807114 7.09903974 0.75 8.75 C0.811875 9.575 0.87375 10.4 0.9375 11.25 C1.41822498 16.31408294 1.41822498 16.31408294 4.078125 20.578125 C4.71234375 21.04734375 5.3465625 21.5165625 6 22 C5.67 22.99 5.34 23.98 5 25 C-0.35048061 24.62671065 -2.50912907 23.0042343 -6 19 C-6.61875 19.66708984 -6.61875 19.66708984 -7.25 20.34765625 C-11.8425277 24.84792335 -11.8425277 24.84792335 -15.140625 25.28125 C-18.23639981 24.96020669 -20.53497104 24.36330387 -23 22.4375 C-23.33 21.963125 -23.66 21.48875 -24 21 C-23.505 19.515 -23.505 19.515 -23 18 C-22.67 18.33 -22.34 18.66 -22 19 C-21.34 18.34 -20.68 17.68 -20 17 C-20 17.66 -20 18.32 -20 19 C-17.66928121 19.41870553 -17.66928121 19.41870553 -15 19 C-13.61767557 17.37373596 -12.28062485 15.7074998 -11 14 C-10.01 14 -9.02 14 -8 14 C-7.690625 13.21625 -7.38125 12.4325 -7.0625 11.625 C-6 9 -6 9 -5 7 C-4.34 7 -3.68 7 -3 7 C-3 5.02 -3 3.04 -3 1 C-1 0 -1 0 0 0 Z " fill="#070707" transform="translate(334,390)"/>
<path d="M0 0 C0.98183463 10.603814 -4.49112961 17.7934548 -10.9375 25.7734375 C-13.12079946 28.13040851 -15.44560836 30.05759802 -18 32 C-17.80584703 20.73912751 -11.62628144 9.19294013 -4 1 C-2 0 -2 0 0 0 Z " fill="#ECECEC" transform="translate(426,424)"/>
<path d="M0 0 C3.53950197 0.4220745 4.94986219 1.69864847 7.125 4.4375 C8.70296618 6.39564974 10.21849868 8.21849868 12 10 C11.10925781 10.23460937 10.21851563 10.46921875 9.30078125 10.7109375 C5.61307307 12.15110756 3.86713467 13.74907182 1.1875 16.625 C-0.19639654 18.09466567 -1.58900588 19.55633023 -3 21 C-3.33 21 -3.66 21 -4 21 C-4.36459298 13.77565758 -3.9909985 7.66388268 -1 1 C-0.67 0.67 -0.34 0.34 0 0 Z " fill="#ECECEC" transform="translate(275,177)"/>
<path d="M0 0 C4.0310441 1.05157672 5.89544582 2.83973778 8.875 5.75 C10.25625018 8.51250036 10.06579306 10.69731099 9.875 13.75 C9.215 14.41 8.555 15.07 7.875 15.75 C7.41103307 18.64223503 7.41103307 18.64223503 7.25 21.875 C7.17523438 22.97070312 7.10046875 24.06640625 7.0234375 25.1953125 C6.97445313 26.03835938 6.92546875 26.88140625 6.875 27.75 C6.545 27.75 6.215 27.75 5.875 27.75 C5.545 25.77 5.215 23.79 4.875 21.75 C4.215 21.75 3.555 21.75 2.875 21.75 C2.565625 22.53375 2.25625 23.3175 1.9375 24.125 C0.875 26.75 0.875 26.75 -0.125 28.75 C-1.115 28.42 -2.105 28.09 -3.125 27.75 C-2.7640625 27.30269531 -2.403125 26.85539062 -2.03125 26.39453125 C1.00942422 22.51135613 1.00942422 22.51135613 2.1875 17.8125 C2.084375 17.131875 1.98125 16.45125 1.875 15.75 C2.535 15.75 3.195 15.75 3.875 15.75 C3.875 13.44 3.875 11.13 3.875 8.75 C1.895 8.09 -0.085 7.43 -2.125 6.75 C-1.125 4.75 -1.125 4.75 1.875 3.75 C-1.90649076 3.75 -3.089349 3.82742103 -6.125 5.75 C-7.115 7.235 -7.115 7.235 -8.125 8.75 C-9.115 8.42 -10.105 8.09 -11.125 7.75 C-4.39584454 1.05500269 -4.39584454 1.05500269 0 0 Z " fill="#131313" transform="translate(326.125,375.25)"/>
<path d="M0 0 C-0.55507838 4.05856011 -1.77828265 6.52043479 -4.1875 9.8125 C-4.81140625 10.67230469 -5.4353125 11.53210938 -6.078125 12.41796875 C-7.02945312 13.69607422 -7.02945312 13.69607422 -8 15 C-8.59296875 15.80050781 -9.1859375 16.60101563 -9.796875 17.42578125 C-11.18852025 19.29124857 -12.58874687 21.14934571 -14 23 C-15.65 21.35 -17.3 19.7 -19 18 C-5.89320388 0 -5.89320388 0 0 0 Z " fill="#1D1D1D" transform="translate(459,421)"/>
<path d="M0 0 C-0.89755005 0.48243164 -0.89755005 0.48243164 -1.81323242 0.97460938 C-13.07098727 7.03755849 -24.17831578 13.18526372 -35 20 C-47.52798679 27.85290879 -47.52798679 27.85290879 -54 28 C-52.54744301 24.17053157 -50.57104439 22.87949705 -47 21 C-47 21.66 -47 22.32 -47 23 C-37.19240012 17.60868779 -27.43227899 12.16244424 -17.83618164 6.40087891 C-14.51312358 4.41899307 -11.16384443 2.48439097 -7.7578125 0.6484375 C-7.13277832 0.30731934 -6.50774414 -0.03379883 -5.86376953 -0.38525391 C-3.55495523 -1.14679365 -2.26662415 -0.77435154 0 0 Z " fill="#141414" transform="translate(234,325)"/>
<path d="M0 0 C3.48533376 0.14831207 5.34773098 0.32523894 7.8125 2.875 C10.33188613 7.38337518 10.15974887 10.96791045 10 16 C9.67 16.66 9.34 17.32 9 18 C8.34 18 7.68 18 7 18 C6.67 16.35 6.34 14.7 6 13 C5.34 13 4.68 13 4 13 C3.175 13.825 2.35 14.65 1.5 15.5 C0.2625 16.7375 0.2625 16.7375 -1 18 C-1.66 18 -2.32 18 -3 18 C-2.39249174 13.86894386 -1.18884505 10.56700675 1 7 C3.1875 6.125 3.1875 6.125 5 6 C5 5.34 5 4.68 5 4 C3.68 3.67 2.36 3.34 1 3 C-0.65 5.31 -2.3 7.62 -4 10 C-4.66 9.34 -5.32 8.68 -6 8 C-2.25 2.25 -2.25 2.25 0 0 Z " fill="#232323" transform="translate(323,168)"/>
<path d="M0 0 C4.95 0 9.9 0 15 0 C15.66 1.32 16.32 2.64 17 4 C12.18750826 7.8499934 7.8948342 7.23579337 2 7 C2 10.3 2 13.6 2 17 C2.66 17.33 3.32 17.66 4 18 C3.01 18 2.02 18 1 18 C0.92652344 16.98679687 0.92652344 16.98679687 0.8515625 15.953125 C0.77679688 15.06109375 0.70203125 14.1690625 0.625 13.25 C0.55539062 12.36828125 0.48578125 11.4865625 0.4140625 10.578125 C0.1497284 7.98771784 0.1497284 7.98771784 -1.1640625 5.921875 C-1.43992187 5.28765625 -1.71578125 4.6534375 -2 4 C-1.34 2.68 -0.68 1.36 0 0 Z " fill="#1B1B1B" transform="translate(420,373)"/>
<path d="M0 0 C0.66 0 1.32 0 2 0 C1.36111113 5.06040549 -0.86279277 9.28011534 -3.0625 13.8125 C-3.43955078 14.60076172 -3.81660156 15.38902344 -4.20507812 16.20117188 C-5.13170161 18.13652473 -6.06517467 20.06859549 -7 22 C-7.66 22 -8.32 22 -9 22 C-9.33 22.99 -9.66 23.98 -10 25 C-12.328125 26.31640625 -12.328125 26.31640625 -15.25 27.5625 C-16.20390625 27.97628906 -17.1578125 28.39007813 -18.140625 28.81640625 C-19.08421875 29.20699219 -20.0278125 29.59757812 -21 30 C-21.80308594 30.36738281 -22.60617188 30.73476563 -23.43359375 31.11328125 C-26.59261685 32.20475499 -29.48073552 32.42307488 -32.8125 32.625 C-33.97394531 32.69976562 -35.13539063 32.77453125 -36.33203125 32.8515625 C-37.21246094 32.90054688 -38.09289062 32.94953125 -39 33 C-38.67 32.34 -38.34 31.68 -38 31 C-34.39216444 30.16625649 -30.7908284 29.46798758 -27.140625 28.8515625 C-19.85133861 27.42749662 -13.66252433 24.76361326 -9.26318359 18.54492188 C-7.6945715 15.78463948 -6.29304292 12.99556149 -4.9375 10.125 C-4.45345703 9.15046875 -3.96941406 8.1759375 -3.47070312 7.171875 C-2.29189603 4.79091809 -1.13613621 2.40153151 0 0 Z " fill="#1D1D1D" transform="translate(164,322)"/>
<path d="M0 0 C1.32 0.33 2.64 0.66 4 1 C4.73992879 6.91943034 2.44908055 10.44332739 -1 15 C-2.48046875 16.73828125 -2.48046875 16.73828125 -4 18 C-4.99 18 -5.98 18 -7 18 C-6.29855372 11.12582649 -4.49205844 5.34768862 0 0 Z " fill="#EBEBEB" transform="translate(235,391)"/>
<path d="M0 0 C2.125 0.375 2.125 0.375 4 1 C4.48695652 8.30434783 4.48695652 8.30434783 2.25 11.5 C0 13 0 13 -4 13 C-4.103125 14.11375 -4.20625 15.2275 -4.3125 16.375 C-4.6528125 18.169375 -4.6528125 18.169375 -5 20 C-5.99 20.66 -6.98 21.32 -8 22 C-7.80832762 13.81036202 -5.97020866 5.97020866 0 0 Z " fill="#E2E2E2" transform="translate(256,248)"/>
<path d="M0 0 C1.32 0.66 2.64 1.32 4 2 C4 10.91 4 19.82 4 29 C3.01 28.34 2.02 27.68 1 27 C0.65942383 24.84521484 0.65942383 24.84521484 0.70703125 22.2109375 C0.71669922 21.26992188 0.72636719 20.32890625 0.73632812 19.359375 C0.76146484 18.37453125 0.78660156 17.3896875 0.8125 16.375 C0.82603516 15.38242188 0.83957031 14.38984375 0.85351562 13.3671875 C0.88894257 10.91091928 0.93833804 8.45572715 1 6 C0.68289063 7.2478125 0.36578125 8.495625 0.0390625 9.78125 C-0.22849854 10.8340918 -0.22849854 10.8340918 -0.50146484 11.90820312 C-1.1396389 14.58590897 -1.5917987 17.27865802 -2 20 C-2.33 20 -2.66 20 -3 20 C-4.32052882 12.73709149 -4.20004336 6.30006504 0 0 Z " fill="#1B1B1B" transform="translate(321,240)"/>
<path d="M0 0 C-1.62612407 3.67189306 -3.87957994 6.61621667 -6.375 9.75 C-7.14585937 10.73484375 -7.91671875 11.7196875 -8.7109375 12.734375 C-11.97638492 15.9663878 -14.54201829 15 -19 15 C-7.125 0 -7.125 0 0 0 Z " fill="#1C1C1C" transform="translate(484,422)"/>
<path d="M0 0 C2.475 0.99 2.475 0.99 5 2 C4.443125 2.350625 3.88625 2.70125 3.3125 3.0625 C0.65642027 5.2878641 -0.97432806 7.68662564 -2.8515625 10.57421875 C-3.23054688 11.04472656 -3.60953125 11.51523437 -4 12 C-4.66 12 -5.32 12 -6 12 C-6.26554687 12.54269531 -6.53109375 13.08539063 -6.8046875 13.64453125 C-7.33449219 14.71767578 -7.33449219 14.71767578 -7.875 15.8125 C-8.22304688 16.52019531 -8.57109375 17.22789062 -8.9296875 17.95703125 C-10 20 -10 20 -12 23 C-13.36220472 17.6750179 -13.36220472 17.6750179 -11.625 14.4375 C-11.08875 13.633125 -10.5525 12.82875 -10 12 C-9.29329272 9.30745009 -9.29329272 9.30745009 -9 7 C-8.01 6.67 -7.02 6.34 -6 6 C-5.319375 5.319375 -4.63875 4.63875 -3.9375 3.9375 C-3.298125 3.298125 -2.65875 2.65875 -2 2 C-1.34 2 -0.68 2 0 2 C0 1.34 0 0.68 0 0 Z " fill="#050505" transform="translate(324,377)"/>
<path d="M0 0 C7.85983711 0.22742584 12.10472022 1.54873449 17.765625 7.0546875 C19.39532375 9.18674485 20.17340829 10.48906604 20.375 13.16015625 C19.715 13.82015625 19.055 14.48015625 18.375 15.16015625 C17.715 13.84015625 17.055 12.52015625 16.375 11.16015625 C16.045 12.15015625 15.715 13.14015625 15.375 14.16015625 C13.69713507 12.00290134 12.27184159 9.96321746 11 7.53515625 C8.3965105 3.7300562 5.44797024 3.36260347 1.0625 2.53515625 C0.175625 2.41140625 -0.71125 2.28765625 -1.625 2.16015625 C-1.955 3.15015625 -2.285 4.14015625 -2.625 5.16015625 C-3.1875 3.22265625 -3.1875 3.22265625 -3.625 1.16015625 C-2.625 0.16015625 -2.625 0.16015625 0 0 Z " fill="#191919" transform="translate(369.625,238.83984375)"/>
<path d="M0 0 C2.4375 0.125 2.4375 0.125 5 1 C6.3125 3.5625 6.3125 3.5625 7 6 C6.01 6.33 5.02 6.66 4 7 C3.34 5.68 2.68 4.36 2 3 C1.67 14.22 1.34 25.44 1 37 C0.67 37 0.34 37 0 37 C-0.33 33.04 -0.66 29.08 -1 25 C-1.33 25 -1.66 25 -2 25 C-1.86185777 21.0205267 -1.71320326 17.04151585 -1.5625 13.0625 C-1.52318359 11.92619141 -1.48386719 10.78988281 -1.44335938 9.61914062 C-1.40146484 8.53955078 -1.35957031 7.45996094 -1.31640625 6.34765625 C-1.27974854 5.34742432 -1.24309082 4.34719238 -1.20532227 3.31665039 C-1 1 -1 1 0 0 Z " fill="#0E0E0E" transform="translate(210,153)"/>
<path d="M0 0 C7.32215357 -0.36010591 7.32215357 -0.36010591 10 1.0625 C11.52690415 4.02087678 11.18468872 6.73716599 11 10 C10.01 10.33 9.02 10.66 8 11 C7.690625 11.804375 7.38125 12.60875 7.0625 13.4375 C6 16 6 16 3.875 17.3125 C2.946875 17.6528125 2.946875 17.6528125 2 18 C2.33 17.01 2.66 16.02 3 15 C3.66 15 4.32 15 5 15 C5 11.7 5 8.4 5 5 C1.0285831 5.62841973 1.0285831 5.62841973 -1 8 C-2 6 -2 6 -1.0625 2.875 C-0.5365625 1.451875 -0.5365625 1.451875 0 0 Z " fill="#0C0C0C" transform="translate(254,244)"/>
<path d="M0 0 C3.48927692 0.31720699 5.55850854 0.66307231 8.375 2.8125 C10 5 10 5 10 9 C6.8125 9.875 6.8125 9.875 3 10 C0.78700108 8.21974097 -0.38796831 6.39362281 -2 4 C-1.34 2.68 -0.68 1.36 0 0 Z " fill="#121212" transform="translate(297,309)"/>
<path d="M0 0 C3 1 3 1 4.1875 2.6875 C5.47185436 6.34297009 5.76446339 9.34809432 4.1015625 12.94140625 C3.12248981 14.65999129 2.06619832 16.33406513 1 18 C0.34 18 -0.32 18 -1 18 C-1.02707139 15.75006641 -1.04642829 13.50003905 -1.0625 11.25 C-1.07410156 9.99703125 -1.08570313 8.7440625 -1.09765625 7.453125 C-1.02021027 4.71463499 -0.82780815 2.58119707 0 0 Z " fill="#DCDCDC" transform="translate(409,254)"/>
<path d="M0 0 C-1.09244037 8.04956064 -7.14211597 14.67465088 -13 20 C-13 16.16235973 -11.73464665 14.88513915 -9.5 11.8125 C-8.8503125 10.91144531 -8.200625 10.01039063 -7.53125 9.08203125 C-7.0259375 8.39496094 -6.520625 7.70789063 -6 7 C-6.99 7 -7.98 7 -9 7 C-6.79922603 2.09058114 -5.62803596 0 0 0 Z " fill="#0F0F0F" transform="translate(459,421)"/>
<path d="M0 0 C4.51478398 0.53115106 7.34666857 2.36620292 11 5 C10.67 6.32 10.34 7.64 10 9 C4.71621441 9.43309718 4.71621441 9.43309718 2 9 C-0.0625 6.75 -0.0625 6.75 -1 4 C-0.6875 1.6875 -0.6875 1.6875 0 0 Z " fill="#0F0F0F" transform="translate(212,246)"/>
<path d="M0 0 C1.32 0.66 2.64 1.32 4 2 C4.32820902 8.72220689 4.46605662 14.0948665 1 20 C0.01 20.33 -0.98 20.66 -2 21 C-1.34 18.03 -0.68 15.06 0 12 C-0.66 12 -1.32 12 -2 12 C-2.33 11.01 -2.66 10.02 -3 9 C-2.34 9 -1.68 9 -1 9 C-1.020625 8.2575 -1.04125 7.515 -1.0625 6.75 C-1.00671312 4.29537721 -0.6930096 2.33890739 0 0 Z " fill="#0D0D0D" transform="translate(187,244)"/>
<path d="M0 0 C0.66 0 1.32 0 2 0 C2.33 1.65 2.66 3.3 3 5 C2.34 5 1.68 5 1 5 C0.7525 5.886875 0.505 6.77375 0.25 7.6875 C-1.03934768 11.10427135 -2.59980129 13.2797748 -5 16 C-5.66 15.34 -6.32 14.68 -7 14 C-7.99 14.66 -8.98 15.32 -10 16 C-10 12.2812584 -9.17115761 11.7680642 -6.6875 9.125 C-4.03241509 6.22367737 -2.00976045 3.38485971 0 0 Z " fill="#161616" transform="translate(308,175)"/>
<path d="M0 0 C0.33 0.99 0.66 1.98 1 3 C-1.42526722 5.51212252 -3.86712007 8.00746398 -6.3125 10.5 C-7.00279297 11.21542969 -7.69308594 11.93085938 -8.40429688 12.66796875 C-9.07138672 13.34472656 -9.73847656 14.02148438 -10.42578125 14.71875 C-11.34484253 15.66137695 -11.34484253 15.66137695 -12.2824707 16.62304688 C-14 18 -14 18 -17 18 C-15.34460834 13.74327859 -12.26236271 11.00257093 -9.0625 7.875 C-8.52431641 7.33746094 -7.98613281 6.79992187 -7.43164062 6.24609375 C-5.05290666 3.89375758 -2.79133165 1.86088777 0 0 Z " fill="#1E1E1E" transform="translate(196,324)"/>
<path d="M0 0 C0.8515625 2.28515625 0.8515625 2.28515625 1.625 5.0625 C2.01558594 6.44115234 2.01558594 6.44115234 2.4140625 7.84765625 C2.60742188 8.55792969 2.80078125 9.26820313 3 10 C2.01 10.495 2.01 10.495 1 11 C-0.65 7.7 -2.3 4.4 -4 1 C-5.2684375 1.495 -5.2684375 1.495 -6.5625 2 C-10.26427852 3.07688102 -13.16430981 3.28948605 -17 3 C-17.99 2.34 -18.98 1.68 -20 1 C-18.14210789 -0.85789211 -15.19056569 -0.72963256 -12.6875 -1.125 C-11.53636719 -1.31320313 -10.38523438 -1.50140625 -9.19921875 -1.6953125 C-5.46683995 -2.05077715 -3.30015234 -1.65007617 0 0 Z " fill="#212121" transform="translate(244,202)"/>
<path d="M0 0 C0.33 1.32 0.66 2.64 1 4 C1.66 4 2.32 4 3 4 C2.34 10.93 1.68 17.86 1 25 C2.65 25.33 4.3 25.66 6 26 C5.67 26.66 5.34 27.32 5 28 C0.125 27.125 0.125 27.125 -1 26 C-1.38615987 17.30004535 -1.00665982 8.64648883 0 0 Z " fill="#1B1B1B" transform="translate(315,264)"/>
<path d="M0 0 C3.06002869 0.10551823 4.25359241 1.21132701 6.625 3.1875 C11.3018105 8.72582822 11.27693298 14.07667546 11 21 C9.35 21 7.7 21 6 21 C5.67 20.34 5.34 19.68 5 19 C6.32 19 7.64 19 9 19 C8.74322411 17.24788218 8.46897047 15.49832064 8.1875 13.75 C8.03667969 12.77546875 7.88585937 11.8009375 7.73046875 10.796875 C6.95263934 7.81866186 6.1039275 6.22530793 4 4 C0.91222828 2.71991738 0.91222828 2.71991738 -2 2 C-1.34 1.34 -0.68 0.68 0 0 Z " fill="#212121" transform="translate(319,329)"/>
<path d="M0 0 C0.66 0 1.32 0 2 0 C2.66 6.6 3.32 13.2 4 20 C5.65 20 7.3 20 9 20 C9.33 19.34 9.66 18.68 10 18 C10.33 18.99 10.66 19.98 11 21 C10 22 10 22 6.4375 22.0625 C5.303125 22.041875 4.16875 22.02125 3 22 C-1.04654428 15.08715353 -0.26901851 7.74175497 0 0 Z " fill="#161616" transform="translate(439,312)"/>
<path d="M0 0 C1.32 0.66 2.64 1.32 4 2 C4 4.31 4 6.62 4 9 C3.34 9 2.68 9 2 9 C2 7.02 2 5.04 2 3 C1.34 3 0.68 3 0 3 C-0.1546875 3.7734375 -0.1546875 3.7734375 -0.3125 4.5625 C-1.24263866 7.86026435 -2.61395512 10.86633332 -4 14 C-4.66 14 -5.32 14 -6 14 C-6.66 15.65 -7.32 17.3 -8 19 C-8.66 18.34 -9.32 17.68 -10 17 C-6.84985504 11.20909522 -3.55506117 5.55194659 0 0 Z " fill="#1A1A1A" transform="translate(459,243)"/>
<path d="M0 0 C0.66 0 1.32 0 2 0 C2 3.96 2 7.92 2 12 C5.3 12.66 8.6 13.32 12 14 C11.67 14.99 11.34 15.98 11 17 C7.35828637 17.34682987 5.05730817 17.02228651 1.625 15.6875 C-1.46918744 12.51964143 -1.3982794 11.6500451 -1.4375 7.375 C-1.21911765 2.43823529 -1.21911765 2.43823529 0 0 Z " fill="#212121" transform="translate(221,400)"/>
<path d="M0 0 C4.0310441 1.05157672 5.89544582 2.83973778 8.875 5.75 C10.25625018 8.51250036 10.06579306 10.69731099 9.875 13.75 C9.215 14.41 8.555 15.07 7.875 15.75 C6.875 12.75 6.875 12.75 6.75 9.25 C6.22129507 5.45120054 6.22129507 5.45120054 2.625 3.625 C-1.02076712 2.39692681 -1.02076712 2.39692681 -3.9375 3.875 C-6.31489794 5.7415392 -6.31489794 5.7415392 -8.125 8.75 C-9.115 8.42 -10.105 8.09 -11.125 7.75 C-4.39584454 1.05500269 -4.39584454 1.05500269 0 0 Z " fill="#1A1A1A" transform="translate(326.125,375.25)"/>
<path d="M0 0 C0.66 0.66 1.32 1.32 2 2 C1.74438677 4.3431213 1.40729228 6.67843403 1 9 C1 9.99 1 10.98 1 12 C-1.69626902 14.47157994 -4.63488012 15.87522541 -8 17.25 C-8.845625 17.60578125 -9.69125 17.9615625 -10.5625 18.328125 C-13.18882935 19.05204912 -14.47212957 18.9128421 -17 18 C-16.01 18 -15.02 18 -14 18 C-14 17.34 -14 16.68 -14 16 C-11 14 -11 14 -7.5 13.3125 C-3.71288979 12.31942062 -3.71288979 12.31942062 -2.125 8.6875 C-1.23789877 5.7797793 -0.45481938 3.00180791 0 0 Z " fill="#0F0F0F" transform="translate(342,252)"/>
<path d="M0 0 C6.75304874 2.401084 11.31782033 5.73869893 14.8125 12 C14.1525 12.66 13.4925 13.32 12.8125 14 C12.27625 13.0925 11.74 12.185 11.1875 11.25 C8.20411827 6.80644199 4.68969774 4.41715505 -0.5625 3.25 C-1.42875 3.1675 -2.295 3.085 -3.1875 3 C-3.8475 4.65 -4.5075 6.3 -5.1875 8 C-5.8475 7.67 -6.5075 7.34 -7.1875 7 C-4.04956897 0 -4.04956897 0 0 0 Z " fill="#1D1D1D" transform="translate(273.1875,168)"/>
<path d="M0 0 C0.33 0 0.66 0 1 0 C2.25841946 6.74153283 3.26404456 13.13484138 3 20 C4.98 20.66 6.96 21.32 9 22 C9 20.02 9 18.04 9 16 C9.33 16 9.66 16 10 16 C10 18.64 10 21.28 10 24 C6.39734437 24.20014754 3.95102509 24.17253381 1 22 C-1.08453766 14.81258961 -1.46411065 7.32055327 0 0 Z " fill="#121212" transform="translate(211,190)"/>
<path d="M0 0 C0.66 0.33 1.32 0.66 2 1 C1.43410156 1.75925781 0.86820312 2.51851563 0.28515625 3.30078125 C-0.44832031 4.29464844 -1.18179687 5.28851563 -1.9375 6.3125 C-2.66839844 7.29863281 -3.39929688 8.28476562 -4.15234375 9.30078125 C-6.12530656 11.91771863 -6.12530656 11.91771863 -7 15 C-5.68 15.33 -4.36 15.66 -3 16 C-4.98 16.66 -6.96 17.32 -9 18 C-10.08385327 14.69424754 -10.17869062 13.37998035 -8.671875 10.17578125 C-7.72054688 8.75845703 -7.72054688 8.75845703 -6.75 7.3125 C-6.12609375 6.35988281 -5.5021875 5.40726562 -4.859375 4.42578125 C-3 2 -3 2 0 0 Z " fill="#1A1A1A" transform="translate(471,437)"/>
<path d="M0 0 C0.66 0 1.32 0 2 0 C2.3690205 14.78132118 2.3690205 14.78132118 0 21 C-0.66 21 -1.32 21 -2 21 C-2.33 22.32 -2.66 23.64 -3 25 C-3.66 25 -4.32 25 -5 25 C-3 19 -3 19 -1.96875 16.21875 C-0.93534235 12.78516975 -0.59380953 9.698889 -0.375 6.125 C-0.30023438 4.97257812 -0.22546875 3.82015625 -0.1484375 2.6328125 C-0.09945312 1.76398438 -0.05046875 0.89515625 0 0 Z " fill="#121212" transform="translate(198,384)"/>
<path d="M0 0 C0 3 0 3 -1.6875 5.0859375 C-11.33592258 14.63657201 -11.33592258 14.63657201 -17 17 C-17.66 16.67 -18.32 16.34 -19 16 C-18.67 15.01 -18.34 14.02 -18 13 C-16.94232422 12.58621094 -16.94232422 12.58621094 -15.86328125 12.1640625 C-11.98966487 10.58924984 -9.30513985 8.11379621 -6.1875 5.375 C-5.59001953 4.859375 -4.99253906 4.34375 -4.37695312 3.8125 C-2.91287591 2.54753728 -1.45572845 1.27456166 0 0 Z " fill="#1D1D1D" transform="translate(180,341)"/>
<path d="M0 0 C0.33 0.99 0.66 1.98 1 3 C0.01 3.33 -0.98 3.66 -2 4 C-2 4.99 -2 5.98 -2 7 C-2.66 7 -3.32 7 -4 7 C-4 11.95 -4 16.9 -4 22 C-4.99 22.33 -5.98 22.66 -7 23 C-6.27214055 6.76120473 -6.27214055 6.76120473 -3 1 C-2.01 0.67 -1.02 0.34 0 0 Z " fill="#242424" transform="translate(247,250)"/>
<path d="M0 0 C0.33 0 0.66 0 1 0 C0.98952637 0.68102783 0.97905273 1.36205566 0.96826172 2.0637207 C0.92671122 5.14660966 0.90067689 8.22943971 0.875 11.3125 C0.85824219 12.38435547 0.84148437 13.45621094 0.82421875 14.56054688 C0.81777344 15.58857422 0.81132812 16.61660156 0.8046875 17.67578125 C0.79421387 18.62364502 0.78374023 19.57150879 0.77294922 20.5480957 C0.82776125 23.25689249 0.82776125 23.25689249 3 26 C-0.875 25.125 -0.875 25.125 -2 24 C-2.08651611 22.58429877 -2.10704904 21.164405 -2.09765625 19.74609375 C-2.09443359 18.89208984 -2.09121094 18.03808594 -2.08789062 17.15820312 C-2.07951172 16.26037109 -2.07113281 15.36253906 -2.0625 14.4375 C-2.05798828 13.53580078 -2.05347656 12.63410156 -2.04882812 11.70507812 C-2.03700225 9.46998686 -2.0205222 7.23502563 -2 5 C-1.34 5 -0.68 5 0 5 C0 3.35 0 1.7 0 0 Z " fill="#111111" transform="translate(402,252)"/>
<path d="M0 0 C0.66 0 1.32 0 2 0 C0.53662794 4.46452493 -1.93656587 7.71643254 -4.9375 11.25 C-5.60168945 12.06210937 -5.60168945 12.06210937 -6.27929688 12.890625 C-8.47240541 15.50535946 -9.70155598 16.90051866 -13 18 C-12.50223488 13.70296641 -9.95315437 11.48575102 -7.0625 8.4375 C-4.46040853 5.67815984 -2.10485922 3.15728883 0 0 Z " fill="#181818" transform="translate(198,330)"/>
<path d="M0 0 C2.375 0.3125 2.375 0.3125 5 1 C5.66 1.99 6.32 2.98 7 4 C6.34 4.66 5.68 5.32 5 6 C4.67 4.68 4.34 3.36 4 2 C3.34 2 2.68 2 2 2 C2.66 7.28 3.32 12.56 4 18 C3.01 17.67 2.02 17.34 1 17 C-0.22517308 11.33357449 -0.09228867 5.76291482 0 0 Z " fill="#131313" transform="translate(364,377)"/>
<path d="M0 0 C0.66 0 1.32 0 2 0 C2.44117322 4.49996683 2.52867608 6.34611117 -0.375 9.9375 C-3 12 -3 12 -5 12 C-4.37343743 7.73937456 -3.1323664 3.1323664 0 0 Z " fill="#DEDEDE" transform="translate(325,174)"/>
<path d="M0 0 C2 2 2 2 2.22705078 4.15478516 C2.21657715 5.02409668 2.20610352 5.8934082 2.1953125 6.7890625 C2.18886719 7.73007813 2.18242187 8.67109375 2.17578125 9.640625 C2.15902344 10.62546875 2.14226562 11.6103125 2.125 12.625 C2.11597656 13.61757812 2.10695313 14.61015625 2.09765625 15.6328125 C2.07404116 18.08878134 2.04110799 20.54427168 2 23 C1.34 23.33 0.68 23.66 0 24 C-1.61770585 20.7645883 -1.14279662 17.23792649 -1.125 13.6875 C-1.12886719 12.92759766 -1.13273437 12.16769531 -1.13671875 11.38476562 C-1.12989371 7.45695562 -0.96449979 3.83503488 0 0 Z " fill="#131313" transform="translate(263,181)"/>
<path d="M0 0 C0.33 0 0.66 0 1 0 C1 8.25 1 16.5 1 25 C-0.65 25 -2.3 25 -4 25 C-6.30143236 21.54785147 -6.13833854 20.76520676 -5.625 16.8125 C-5.51414063 15.91144531 -5.40328125 15.01039063 -5.2890625 14.08203125 C-5.14597656 13.05142578 -5.14597656 13.05142578 -5 12 C-4.67 12 -4.34 12 -4 12 C-3.67 15.3 -3.34 18.6 -3 22 C-2.01 22.33 -1.02 22.66 0 23 C0 15.41 0 7.82 0 0 Z " fill="#1E1E1E" transform="translate(245,272)"/>
<path d="M0 0 C0.33 0 0.66 0 1 0 C0.835 1.216875 0.67 2.43375 0.5 3.6875 C-0.9723941 14.09300348 -0.9723941 14.09300348 1 24 C0.01 23.67 -0.98 23.34 -2 23 C-2.85976146 19.26519624 -3.1632868 15.76802846 -3.1875 11.9375 C-3.20167969 10.91527344 -3.21585938 9.89304687 -3.23046875 8.83984375 C-2.99878797 5.98506535 -2.45382131 4.42663854 -1 2 C-0.67 1.34 -0.34 0.68 0 0 Z " fill="#242424" transform="translate(181,398)"/>
<path d="M0 0 C0.99 0.33 1.98 0.66 3 1 C2.5289356 5.14536674 2.0080208 7.9919792 -1 11 C-1.99 11 -2.98 11 -4 11 C-3.48964169 6.6109185 -2.47785723 3.66291938 0 0 Z " fill="#DDDDDD" transform="translate(353,175)"/>
<path d="M0 0 C9.75961538 -0.60576923 9.75961538 -0.60576923 13.6875 1.3125 C15.82758961 5.69458826 15.29707731 10.21375444 15 15 C14.01 15.33 13.02 15.66 12 16 C12 12.04 12 8.08 12 4 C9.10655794 2.55327897 6.19460336 2.61943417 2.99609375 2.37890625 C2.33738281 2.25386719 1.67867187 2.12882812 1 2 C0.67 1.34 0.34 0.68 0 0 Z " fill="#1F1F1F" transform="translate(175,271)"/>
<path d="M0 0 C0 4 0 4 -2 7 C-4.66666667 7 -7.33333333 7 -10 7 C-9.09827532 5.82174642 -8.17798498 4.65768423 -7.25 3.5 C-6.73953125 2.8503125 -6.2290625 2.200625 -5.703125 1.53125 C-4 0 -4 0 0 0 Z " fill="#0D0D0D" transform="translate(475,430)"/>
<path d="M0 0 C-13.75862069 7 -13.75862069 7 -18 7 C-18 6.34 -18 5.68 -18 5 C-16.41925436 4.18247697 -14.83528777 3.37118003 -13.25 2.5625 C-12.36828125 2.11003906 -11.4865625 1.65757812 -10.578125 1.19140625 C-6.60350194 -0.64535138 -4.23358979 -1.36079672 0 0 Z " fill="#171717" transform="translate(500,440)"/>
<path d="M0 0 C2.4375 0.125 2.4375 0.125 5 1 C6.3125 3.5625 6.3125 3.5625 7 6 C6.01 6.33 5.02 6.66 4 7 C3.34 5.68 2.68 4.36 2 3 C1.67 8.61 1.34 14.22 1 20 C0.67 20 0.34 20 0 20 C-0.19594676 16.85463232 -0.3803401 13.70869386 -0.5625 10.5625 C-0.61857422 9.66466797 -0.67464844 8.76683594 -0.73242188 7.84179688 C-0.78076172 6.98779297 -0.82910156 6.13378906 -0.87890625 5.25390625 C-0.9260376 4.46314697 -0.97316895 3.6723877 -1.02172852 2.85766602 C-1 1 -1 1 0 0 Z " fill="#1F1F1F" transform="translate(210,153)"/>
<path d="M0 0 C2 3 2 3 1.9375 5.5625 C0.29082593 11.60030492 -2.27116318 17.75510847 -7 22 C-7.33 21.34 -7.66 20.68 -8 20 C-7.07421875 18.23046875 -7.07421875 18.23046875 -5.6875 16.1875 C-2.19181704 10.80356725 -0.75620531 6.42774512 0 0 Z " fill="#202020" transform="translate(426,425)"/>
<path d="M0 0 C0.33 0.99 0.66 1.98 1 3 C1.9590625 3.4640625 1.9590625 3.4640625 2.9375 3.9375 C5.45468915 5.2342338 5.96886948 6.4221737 7 9 C4.39417629 9.93065133 3.35801776 10.14917407 0.75 9.0625 C0.1725 8.711875 -0.405 8.36125 -1 8 C-0.67 5.36 -0.34 2.72 0 0 Z " fill="#101010" transform="translate(333,405)"/>
<path d="M0 0 C0.66 0.33 1.32 0.66 2 1 C2 3.31 2 5.62 2 8 C1.34 6.68 0.68 5.36 0 4 C-0.515625 4.825 -1.03125 5.65 -1.5625 6.5 C-4 9 -4 9 -7.75 9.3125 C-8.8225 9.209375 -9.895 9.10625 -11 9 C-11.33 7.68 -11.66 6.36 -12 5 C-10.948125 5.28875 -9.89625 5.5775 -8.8125 5.875 C-5.1579822 6.409561 -5.1579822 6.409561 -3.421875 4.73046875 C-1.87406096 2.88293507 -1.87406096 2.88293507 0 0 Z " fill="#161616" transform="translate(304,341)"/>
<path d="M0 0 C0.66 0 1.32 0 2 0 C3.55766393 1.55766393 3.75203633 2.83031791 4 5 C2.5625 7.25 2.5625 7.25 1 9 C-0.32 8.67 -1.64 8.34 -3 8 C-2.45276317 4.62537285 -1.9451 2.91765 0 0 Z " fill="#151515" transform="translate(281,343)"/>
<path d="M0 0 C4 1 4 1 6 3 C6 4.32 6 5.64 6 7 C3 6 3 6 2 5 C2 6.65 2 8.3 2 10 C1.01 10 0.02 10 -1 10 C-0.67 6.7 -0.34 3.4 0 0 Z " fill="#252525" transform="translate(371,166)"/>
<path d="M0 0 C-0.66 0.66 -1.32 1.32 -2 2 C-0.68 2.66 0.64 3.32 2 4 C-1.96 4.66 -5.92 5.32 -10 6 C-10.33 4.68 -10.66 3.36 -11 2 C-9.54494642 1.47007308 -8.08581873 0.9513211 -6.625 0.4375 C-5.81289063 0.14746094 -5.00078125 -0.14257812 -4.1640625 -0.44140625 C-2 -1 -2 -1 0 0 Z " fill="#D3D3D3" transform="translate(433,396)"/>
<path d="M0 0 C0.99 0 1.98 0 3 0 C2.50754484 1.97861447 2.01143121 3.95588267 1.5 5.9296875 C0.47048086 9.93516041 -0.38572764 13.90485092 -1 18 C-1.33 18 -1.66 18 -2 18 C-3.11602213 11.86187827 -2.90785354 6.97184293 -1 1 C-0.67 0.67 -0.34 0.34 0 0 Z " fill="#131313" transform="translate(320,242)"/>
<path d="M0 0 C1.32 0.66 2.64 1.32 4 2 C3.65120368 5.25543229 2.97866739 6.01873107 0.4375 8.25 C-0.366875 8.8275 -1.17125 9.405 -2 10 C-2.25 3.375 -2.25 3.375 0 0 Z " fill="#0B0B0B" transform="translate(440,440)"/>
<path d="M0 0 C0.66 0.66 1.32 1.32 2 2 C1.7578125 5.2578125 1.7578125 5.2578125 1.125 9.125 C0.92132813 10.40632813 0.71765625 11.68765625 0.5078125 13.0078125 C0.34023438 13.99523437 0.17265625 14.98265625 0 16 C-0.99 16 -1.98 16 -3 16 C-2.68806536 14.27073126 -2.37542638 12.54158956 -2.0625 10.8125 C-1.88847656 9.84957031 -1.71445312 8.88664063 -1.53515625 7.89453125 C-1.0476265 5.25760028 -0.53328895 2.6280095 0 0 Z " fill="#1E1E1E" transform="translate(364,247)"/>
<path d="M0 0 C4.26652402 3.7924658 6.89480975 7.67233976 9 13 C9 13.66 9 14.32 9 15 C5.07994061 13.69331354 4.71967958 12.21332305 2.8125 8.625 C2.01779297 7.15933594 2.01779297 7.15933594 1.20703125 5.6640625 C0 3 0 3 0 0 Z " fill="#1E1E1E" transform="translate(415,249)"/>
<path d="M0 0 C1.875 0.25 1.875 0.25 4 1 C6.15942137 4.20995069 6.1205511 6.48381163 5.625 10.25 C5.45871094 11.58804687 5.45871094 11.58804687 5.2890625 12.953125 C5.14597656 13.96632813 5.14597656 13.96632813 5 15 C4.67 15 4.34 15 4 15 C3.67 11.37 3.34 7.74 3 4 C1.02 4.66 -0.96 5.32 -3 6 C-3 5.34 -3 4.68 -3 4 C-2.34 4 -1.68 4 -1 4 C-0.67 2.68 -0.34 1.36 0 0 Z " fill="#101010" transform="translate(345,245)"/>
<path d="M0 0 C0 3.83764027 -1.26535335 5.11486085 -3.5 8.1875 C-4.1496875 9.08855469 -4.799375 9.98960937 -5.46875 10.91796875 C-5.9740625 11.60503906 -6.479375 12.29210937 -7 13 C-7.99 12.01 -8.98 11.02 -10 10 C-6.7 6.7 -3.4 3.4 0 0 Z " fill="#D8D8D8" transform="translate(172,334)"/>
<path d="M0 0 C0.66 0.33 1.32 0.66 2 1 C1.67 4.63 1.34 8.26 1 12 C2.65 12.33 4.3 12.66 6 13 C4.02 13.99 4.02 13.99 2 15 C1.01 14.34 0.02 13.68 -1 13 C-1.328125 10.9765625 -1.328125 10.9765625 -1.25 8.625 C-1.23453125 7.85414063 -1.2190625 7.08328125 -1.203125 6.2890625 C-1.00838739 4.0945194 -0.59915017 2.11635304 0 0 Z " fill="#131313" transform="translate(380,213)"/>
<path d="M0 0 C0.33 0 0.66 0 1 0 C2.15316726 6.34241995 2.09507063 12.56688704 2 19 C1.01 19 0.02 19 -1 19 C-0.67 12.73 -0.34 6.46 0 0 Z " fill="#252525" transform="translate(241,161)"/>
<path d="M0 0 C0.66 0.99 1.32 1.98 2 3 C-2.22949995 5.41685712 -5.12335991 6.34833144 -10 6 C-10.33 5.34 -10.66 4.68 -11 4 C-7.37 2.68 -3.74 1.36 0 0 Z " fill="#232323" transform="translate(445,452)"/>
<path d="M0 0 C0.66 0.309375 1.32 0.61875 2 0.9375 C5.70476015 2.24960255 9.09263991 2.60264135 13 3 C13 3.66 13 4.32 13 5 C8.58547846 6.05948517 6.65384171 6.3447529 2.5625 4.1875 C1.716875 3.465625 0.87125 2.74375 0 2 C0 1.34 0 0.68 0 0 Z " fill="#212121" transform="translate(241,412)"/>
<path d="M0 0 C0.33 0.66 0.66 1.32 1 2 C0.51789063 2.54269531 0.03578125 3.08539063 -0.4609375 3.64453125 C-1.09257812 4.35996094 -1.72421875 5.07539063 -2.375 5.8125 C-3.31472656 6.87404297 -3.31472656 6.87404297 -4.2734375 7.95703125 C-6.140599 10.08803819 -6.140599 10.08803819 -8 13 C-8.66 13 -9.32 13 -10 13 C-10.33 13.99 -10.66 14.98 -11 16 C-10.38745604 9.05783509 -4.7387678 4.60337443 0 0 Z " fill="#121212" transform="translate(463,290)"/>
<path d="M0 0 C0.33 0.66 0.66 1.32 1 2 C3.01147962 2.87373181 3.01147962 2.87373181 5.375 3.5625 C6.16648437 3.81128906 6.95796875 4.06007813 7.7734375 4.31640625 C8.50820313 4.54199219 9.24296875 4.76757812 10 5 C10.99 5.33 11.98 5.66 13 6 C13.33 4.68 13.66 3.36 14 2 C14 3.65 14 5.3 14 7 C10.92636598 7.99893106 8.83500264 8.36063734 5.8203125 7.05859375 C1.79755918 4.66068919 1.79755918 4.66068919 0 3 C0 2.01 0 1.02 0 0 Z " fill="#151515" transform="translate(360,401)"/>
<path d="M0 0 C1.32 0 2.64 0 4 0 C4 1.98 4 3.96 4 6 C3.67 4.68 3.34 3.36 3 2 C0.38472619 4.36620011 -1.26440562 6.942048 -3 10 C-3.66 9.34 -4.32 8.68 -5 8 C-4.26829419 6.65654015 -3.51394247 5.32539416 -2.75 4 C-2.33234375 3.2575 -1.9146875 2.515 -1.484375 1.75 C-0.99453125 1.1725 -0.5046875 0.595 0 0 Z " fill="#161616" transform="translate(395,165)"/>
<path d="M0 0 C-0.33 1.65 -0.66 3.3 -1 5 C-1.66 5 -2.32 5 -3 5 C-3.33 5.33 -3.66 5.66 -4 6 C-5.66014616 6.36442233 -7.32706064 6.69972883 -9 7 C-6.79922603 2.09058114 -5.62803596 0 0 0 Z " fill="#171717" transform="translate(459,421)"/>
<path d="M0 0 C0.66 0.66 1.32 1.32 2 2 C0.68 5.63 -0.64 9.26 -2 13 C-2.66 13 -3.32 13 -4 13 C-4.33 13.99 -4.66 14.98 -5 16 C-4.49228528 10.03435204 -2.61407872 5.36190101 0 0 Z " fill="#111111" transform="translate(192,379)"/>
<path d="M0 0 C3.37663282 0.48237612 4.46886856 1.81958496 6.625 4.375 C3.625 4.375 3.625 4.375 1.1875 3.625 C-0.0809375 3.50125 -0.0809375 3.50125 -1.375 3.375 C-3.70954661 5.20858335 -3.70954661 5.20858335 -5.375 7.375 C-4.31818182 0.68181818 -4.31818182 0.68181818 0 0 Z " fill="#1C1C1C" transform="translate(193.375,368.625)"/>
<path d="M0 0 C0.33 0.99 0.66 1.98 1 3 C-1.31 5.31 -3.62 7.62 -6 10 C-6.33 8.68 -6.66 7.36 -7 6 C-4.69 4.02 -2.38 2.04 0 0 Z " fill="#252525" transform="translate(196,324)"/>
<path d="M0 0 C2.5 1.6875 2.5 1.6875 5 4 C5.3125 6.75 5.3125 6.75 5 9 C2.125 9.125 2.125 9.125 -1 9 C-1.66 8.34 -2.32 7.68 -3 7 C0 6 0 6 3 7 C2.505 6.21625 2.01 5.4325 1.5 4.625 C0 2 0 2 0 0 Z " fill="#1C1C1C" transform="translate(270,280)"/>
<path d="M0 0 C2 3 2 3 1.75 6.375 C1.09860898 9.52338995 0.50126307 12.16428088 -1 15 C-1.99 15.33 -2.98 15.66 -4 16 C-3.79503906 15.43152344 -3.59007812 14.86304688 -3.37890625 14.27734375 C-1.70907331 9.4915546 -0.53623064 5.04056799 0 0 Z " fill="#1A1A1A" transform="translate(189,249)"/>
<path d="M0 0 C0 3.63195496 -0.95453155 4.74713911 -3 7.6875 C-3.556875 8.49574219 -4.11375 9.30398438 -4.6875 10.13671875 C-5.120625 10.75160156 -5.55375 11.36648438 -6 12 C-6.33 11.01 -6.66 10.02 -7 9 C-7.66 8.67 -8.32 8.34 -9 8 C-6.03 5.36 -3.06 2.72 0 0 Z " fill="#DBDBDB" transform="translate(470,435)"/>
<path d="M0 0 C0.33 0.99 0.66 1.98 1 3 C-2.2837938 5.48772258 -3.61198583 6.03180444 -7.8125 5.6875 C-9.3903125 5.3471875 -9.3903125 5.3471875 -11 5 C-11 4.34 -11 3.68 -11 3 C-7.33694766 2.25073929 -4.57644848 1.7619986 -1 3 C-0.67 2.01 -0.34 1.02 0 0 Z " fill="#0F0F0F" transform="translate(324,409)"/>
<path d="M0 0 C0.99 0.33 1.98 0.66 3 1 C4 5.875 4 5.875 4 7 C6.97 7.495 6.97 7.495 10 8 C10 8.33 10 8.66 10 9 C4.71621441 9.43309718 4.71621441 9.43309718 2 9 C-0.0625 6.75 -0.0625 6.75 -1 4 C-0.6875 1.6875 -0.6875 1.6875 0 0 Z " fill="#333333" transform="translate(212,246)"/>
<path d="M0 0 C1.15628906 0.12568359 1.15628906 0.12568359 2.3359375 0.25390625 C3.33882813 0.35574219 4.34171875 0.45757812 5.375 0.5625 C6.37273437 0.66691406 7.37046875 0.77132812 8.3984375 0.87890625 C10.984037 1.21144708 10.984037 1.21144708 13 0 C12.67 1.32 12.34 2.64 12 4 C4.61538462 4.49230769 4.61538462 4.49230769 1.5 2 C1.005 1.34 0.51 0.68 0 0 Z " fill="#131313" transform="translate(264,204)"/>
<path d="M0 0 C0.99 0.33 1.98 0.66 3 1 C2.21625 1.70125 1.4325 2.4025 0.625 3.125 C-2.08360818 6.09157086 -3.01722715 8.1582516 -4 12 C-4.66 11.34 -5.32 10.68 -6 10 C-5.84831437 5.75280228 -2.67183599 3.01437907 0 0 Z " fill="#131313" transform="translate(389,201)"/>
<path d="M0 0 C0.33 0.66 0.66 1.32 1 2 C-3.455 7.94 -3.455 7.94 -8 14 C-8.66 13.67 -9.32 13.34 -10 13 C-5.05 6.565 -5.05 6.565 0 0 Z " fill="#C1C1C1" transform="translate(453,426)"/>
<path d="M0 0 C0.66 0.66 1.32 1.32 2 2 C-2.10457614 4.98514628 -4.97745369 5.2954439 -10 5 C-10 4.34 -10 3.68 -10 3 C-10.66 2.67 -11.32 2.34 -12 2 C-11.07767578 2.03480469 -11.07767578 2.03480469 -10.13671875 2.0703125 C-8.92435547 2.09738281 -8.92435547 2.09738281 -7.6875 2.125 C-6.48673828 2.15980469 -6.48673828 2.15980469 -5.26171875 2.1953125 C-2.71611424 2.15817322 -2.71611424 2.15817322 0 0 Z " fill="#161616" transform="translate(302,391)"/>
<path d="M0 0 C0.33 0 0.66 0 1 0 C3.11161731 9.41002278 3.11161731 9.41002278 4 14 C3.01 14 2.02 14 1 14 C-1.61895048 9.22426677 -0.83119431 5.15565119 0 0 Z " fill="#2E2E2E" transform="translate(355,377)"/>
<path d="M0 0 C0.66 0 1.32 0 2 0 C1.39288519 4.12838068 0.12477683 7.40422382 -2 11 C-2.99 11.33 -3.98 11.66 -5 12 C-3.68938409 7.76570244 -2.05643741 3.92592596 0 0 Z " fill="#111111" transform="translate(164,322)"/>
<path d="M0 0 C0.66 0.33 1.32 0.66 2 1 C2 1.99 2 2.98 2 4 C3.32 4 4.64 4 6 4 C6.33 3.34 6.66 2.68 7 2 C7.33 3.32 7.66 4.64 8 6 C4.94736336 6.98120464 3.05263664 6.98120464 0 6 C-1.125 2.25 -1.125 2.25 0 0 Z " fill="#181818" transform="translate(341,276)"/>
<path d="M0 0 C0 2.64 0 5.28 0 8 C-0.66 8 -1.32 8 -2 8 C-5 3.61538462 -5 3.61538462 -5 1 C-3 0 -3 0 0 0 Z " fill="#CCCCCC" transform="translate(288,259)"/>
<path d="M0 0 C1.5778125 0.3403125 1.5778125 0.3403125 3.1875 0.6875 C5.1875 1.02083333 7.1875 1.35416667 9.1875 1.6875 C9.1875 2.0175 9.1875 2.3475 9.1875 2.6875 C2.6791986 3.81393678 2.6791986 3.81393678 0 3.125 C-2.50000018 2.52155168 -3.67557942 3.39008393 -5.8125 4.6875 C-5.8125 3.6975 -5.8125 2.7075 -5.8125 1.6875 C-2.8125 -0.3125 -2.8125 -0.3125 0 0 Z " fill="#171717" transform="translate(283.8125,199.3125)"/>
<path d="M0 0 C0.66 0.33 1.32 0.66 2 1 C0.83709195 4.48872415 -0.13967609 5.09976864 -3.0625 7.1875 C-3.79597656 7.71730469 -4.52945312 8.24710938 -5.28515625 8.79296875 C-5.85105469 9.19128906 -6.41695313 9.58960938 -7 10 C-7 7 -7 7 -5.46875 5.17578125 C-4.8190625 4.56089844 -4.169375 3.94601563 -3.5 3.3125 C-2.8503125 2.68988281 -2.200625 2.06726563 -1.53125 1.42578125 C-0.77328125 0.72001953 -0.77328125 0.72001953 0 0 Z " fill="#151515" transform="translate(280,189)"/>
<path d="M0 0 C0.33 0 0.66 0 1 0 C1.33 2.64 1.66 5.28 2 8 C3.65 8.33 5.3 8.66 7 9 C7 9.99 7 10.98 7 12 C1.45454545 10.55335968 1.45454545 10.55335968 -0.4375 8.25 C-1.18279994 5.26880023 -0.67432816 2.9670439 0 0 Z " fill="#1E1E1E" transform="translate(273,408)"/>
<path d="M0 0 C2 2 2 2 2.1953125 4.1640625 C2.17210937 4.97617187 2.14890625 5.78828125 2.125 6.625 C2.10695313 7.44226563 2.08890625 8.25953125 2.0703125 9.1015625 C2.03550781 10.04128906 2.03550781 10.04128906 2 11 C0.35 11 -1.3 11 -3 11 C-3.33 10.34 -3.66 9.68 -4 9 C-2.68 9 -1.36 9 0 9 C0 6.03 0 3.06 0 0 Z " fill="#191919" transform="translate(328,339)"/>
<path d="M0 0 C4.875 0.875 4.875 0.875 6 2 C6.3125 4.3125 6.3125 4.3125 6 7 C4 9.3125 4 9.3125 2 11 C2 8 2 8 2.6875 5.5 C2.790625 4.675 2.89375 3.85 3 3 C1.66621425 1.1645201 1.66621425 1.1645201 0 0 Z " fill="#1D1D1D" transform="translate(464,278)"/>
<path d="M0 0 C1.37478516 0.01740234 1.37478516 0.01740234 2.77734375 0.03515625 C3.69644531 0.04417969 4.61554688 0.05320312 5.5625 0.0625 C6.27277344 0.07410156 6.98304688 0.08570313 7.71484375 0.09765625 C7.71484375 1.08765625 7.71484375 2.07765625 7.71484375 3.09765625 C6.45671875 3.13890625 5.19859375 3.18015625 3.90234375 3.22265625 C3.19464844 3.24585938 2.48695313 3.2690625 1.7578125 3.29296875 C-0.28515625 3.09765625 -0.28515625 3.09765625 -3.28515625 1.09765625 C-2.28515625 0.09765625 -2.28515625 0.09765625 0 0 Z " fill="#1A1A1A" transform="translate(443.28515625,271.90234375)"/>
<path d="M0 0 C0.66 0.33 1.32 0.66 2 1 C1.01 6.28 0.02 11.56 -1 17 C-1.33 17 -1.66 17 -2 17 C-3.31281522 10.43592388 -2.52653315 6.16645379 0 0 Z " fill="#181818" transform="translate(341,188)"/>
<path d="M0 0 C2.3431213 0.25561323 4.67843403 0.59270772 7 1 C7.33 1.66 7.66 2.32 8 3 C7.34 3 6.68 3 6 3 C6 4.65 6 6.3 6 8 C5.01 8 4.02 8 3 8 C2.01 5.36 1.02 2.72 0 0 Z " fill="#020202" transform="translate(353,172)"/>
<path d="M0 0 C1.09658936 3.28976808 0.79953138 4.71303767 0 8 C-0.33 8 -0.66 8 -1 8 C-1.125 2.25 -1.125 2.25 0 0 Z M-2 8 C-1.34 8.33 -0.68 8.66 0 9 C-0.33 11.31 -0.66 13.62 -1 16 C-3 13 -3 13 -2.625 10.3125 C-2.41875 9.549375 -2.2125 8.78625 -2 8 Z " fill="#1D1D1D" transform="translate(285,382)"/>
<path d="M0 0 C0.66 0 1.32 0 2 0 C2 1.65 2 3.3 2 5 C3.98 4.34 5.96 3.68 8 3 C7.67 4.32 7.34 5.64 7 7 C4.625 7.125 4.625 7.125 2 7 C0 5 0 5 -0.125 2.375 C-0.08375 1.59125 -0.0425 0.8075 0 0 Z " fill="#161616" transform="translate(201,293)"/>
<path d="M0 0 C0.33 0 0.66 0 1 0 C2.70159453 11.52164009 2.70159453 11.52164009 -1 17 C-1.66 17 -2.32 17 -3 17 C-2.690625 16.236875 -2.38125 15.47375 -2.0625 14.6875 C-0.66197419 9.82685159 -0.34020266 5.03141827 0 0 Z " fill="#1B1B1B" transform="translate(389,255)"/>
<path d="M0 0 C0.33 0 0.66 0 1 0 C1 2.64 1 5.28 1 8 C-2.62528568 8.20140476 -4.86501708 7.85776765 -8 6 C-7.67 5.01 -7.34 4.02 -7 3 C-3.535 4.485 -3.535 4.485 0 6 C0 4.02 0 2.04 0 0 Z " fill="#202020" transform="translate(220,206)"/>
<path d="M0 0 C0.33 0 0.66 0 1 0 C1 3.63 1 7.26 1 11 C0.01 10.67 -0.98 10.34 -2 10 C-2.17942163 6.05272412 -2.09350689 3.4019487 0 0 Z " fill="#262626" transform="translate(310,204)"/>
<path d="M0 0 C0.66 0.66 1.32 1.32 2 2 C-0.38179263 5.74281699 -2.74475735 8.97727468 -6 12 C-5.54300722 6.97307937 -3.00758252 3.85103739 0 0 Z " fill="#1D1D1D" transform="translate(389,175)"/>
<path d="M0 0 C0.66 0.66 1.32 1.32 2 2 C-2.77357872 4.71391278 -6.34388537 6.56561146 -12 6 C-8.78447861 3.85631908 -5.5589943 2.48830671 -2 1 C-1.34 0.67 -0.68 0.34 0 0 Z " fill="#0C0C0C" transform="translate(424,460)"/>
<path d="M0 0 C0.99 0.33 1.98 0.66 3 1 C2.67 1.66 2.34 2.32 2 3 C1.34 3 0.68 3 0 3 C0 4.65 0 6.3 0 8 C-0.99 8.33 -1.98 8.66 -3 9 C-2.25 2.25 -2.25 2.25 0 0 Z " fill="#282828" transform="translate(246,359)"/>
<path d="M0 0 C0.66 0.33 1.32 0.66 2 1 C1.25749403 5.08378283 0.17076699 9.01939223 -1 13 C-1.33 13 -1.66 13 -2 13 C-2.625 9.625 -2.625 9.625 -3 6 C-2.34 5.34 -1.68 4.68 -1 4 C-0.3574765 1.93125966 -0.3574765 1.93125966 0 0 Z " fill="#121212" transform="translate(387,381)"/>
<path d="M0 0 C1.32 0.33 2.64 0.66 4 1 C3.67 2.65 3.34 4.3 3 6 C0.03 6 -2.94 6 -6 6 C-6 5.67 -6 5.34 -6 5 C-3.69 5 -1.38 5 1 5 C0.67 3.35 0.34 1.7 0 0 Z " fill="#272727" transform="translate(225,291)"/>
<path d="M0 0 C-2.51445576 2.51445576 -3.46406513 2.63167345 -7 3 C-10.34921257 2.78458357 -13.67077245 2.42019377 -17 2 C-17 1.67 -17 1.34 -17 1 C-11.30494264 0.3583034 -5.73266804 -0.12462322 0 0 Z " fill="#212121" transform="translate(379,280)"/>
<path d="M0 0 C0 0.33 0 0.66 0 1 C-0.86625 1.268125 -1.7325 1.53625 -2.625 1.8125 C-5.91791964 2.97111987 -8.91127875 4.38209839 -12 6 C-12.33 5.34 -12.66 4.68 -13 4 C-8.48649253 0.47726246 -5.71658336 -0.45732667 0 0 Z " fill="#191919" transform="translate(264,400)"/>
<path d="M0 0 C6.93 0.495 6.93 0.495 14 1 C14 1.33 14 1.66 14 2 C9.71 2 5.42 2 1 2 C1 2.66 1 3.32 1 4 C0.01 4 -0.98 4 -2 4 C-1.34 2.68 -0.68 1.36 0 0 Z " fill="#1E1E1E" transform="translate(420,373)"/>
<path d="M0 0 C0.33 0 0.66 0 1 0 C1.71033431 5.52967941 2.30267176 10.49983036 1 16 C0.67 16 0.34 16 0 16 C-0.1958009 14.08416353 -0.38132214 12.16727461 -0.5625 10.25 C-0.66691406 9.18265625 -0.77132813 8.1153125 -0.87890625 7.015625 C-0.98560074 4.35858796 -0.81930395 2.50039428 0 0 Z " fill="#343434" transform="translate(451,310)"/>
<path d="M0 0 C0.66 0 1.32 0 2 0 C1.69381595 3.67420866 1.24228216 4.78135513 -1.5625 7.3125 C-2.366875 7.869375 -3.17125 8.42625 -4 9 C-4.66 8.67 -5.32 8.34 -6 8 C-5.67 7.34 -5.34 6.68 -5 6 C-4.34 6.33 -3.68 6.66 -3 7 C-2.690625 6.21625 -2.38125 5.4325 -2.0625 4.625 C-1 2 -1 2 0 0 Z " fill="#222222" transform="translate(413,265)"/>
<path d="M0 0 C0 0.99 0 1.98 0 3 C-3.33303391 5.49977543 -4.73303602 6 -9 6 C-9 5.34 -9 4.68 -9 4 C-7.88625 3.525625 -6.7725 3.05125 -5.625 2.5625 C-3.73289006 1.74693537 -1.84287291 0.92143645 0 0 Z " fill="#0D0D0D" transform="translate(397,467)"/>
<path d="M0 0 C4.75 0.875 4.75 0.875 7 2 C6.67 2.99 6.34 3.98 6 5 C4.35 4.67 2.7 4.34 1 4 C0.67 2.68 0.34 1.36 0 0 Z " fill="#010101" transform="translate(298,312)"/>
<path d="M0 0 C0.33 0.99 0.66 1.98 1 3 C0.01 3.33 -0.98 3.66 -2 4 C-2 4.99 -2 5.98 -2 7 C-2.99 7.33 -3.98 7.66 -5 8 C-4.1875 4.5625 -4.1875 4.5625 -3 1 C-2.01 0.67 -1.02 0.34 0 0 Z " fill="#1B1B1B" transform="translate(247,250)"/>
<path d="M0 0 C0.33 0 0.66 0 1 0 C1.25 6.625 1.25 6.625 -1 10 C-1.99 9.67 -2.98 9.34 -4 9 C-3.34 8.01 -2.68 7.02 -2 6 C-1.29835358 4.01200182 -0.62627128 2.01301483 0 0 Z " fill="#131313" transform="translate(240,183)"/>
<path d="M0 0 C0.66 0 1.32 0 2 0 C0.50163895 3.11198065 -1.19933758 6.0534615 -3 9 C-3.66 8.34 -4.32 7.68 -5 7 C-1.125 1.125 -1.125 1.125 0 0 Z " fill="#181818" transform="translate(322,169)"/>
<path d="M0 0 C0.33 0 0.66 0 1 0 C1 2.31 1 4.62 1 7 C0.01 7.33 -0.98 7.66 -2 8 C-2.33 8.66 -2.66 9.32 -3 10 C-2.49287967 6.28111761 -1.88391785 3.26545761 0 0 Z " fill="#1E1E1E" transform="translate(437,444)"/>
<path d="M0 0 C0.66 0 1.32 0 2 0 C1.35455571 3.48539917 -0.10134397 6.02819057 -2 9 C-2.6875 7.3125 -2.6875 7.3125 -3 5 C-1.6875 2.25 -1.6875 2.25 0 0 Z " fill="#212121" transform="translate(313,386)"/>
<path d="M0 0 C0.66 0.33 1.32 0.66 2 1 C0.02 5.455 0.02 5.455 -2 10 C-2.66 8.68 -3.32 7.36 -4 6 C-2.68 4.02 -1.36 2.04 0 0 Z " fill="#1E1E1E" transform="translate(227,386)"/>
<path d="M0 0 C1.32 0.33 2.64 0.66 4 1 C4.33 2.32 4.66 3.64 5 5 C4.401875 4.649375 3.80375 4.29875 3.1875 3.9375 C0.89186786 2.66695302 0.89186786 2.66695302 -2 4 C-1.34 2.68 -0.68 1.36 0 0 Z " fill="#222222" transform="translate(271,379)"/>
<path d="M0 0 C2.64 0 5.28 0 8 0 C8 0.99 8 1.98 8 3 C5.36 3 2.72 3 0 3 C0 2.01 0 1.02 0 0 Z " fill="#202020" transform="translate(164,306)"/>
<path d="M0 0 C-1.52738838 3.05477677 -3.79357955 5.39755536 -6 8 C-6.66 7.34 -7.32 6.68 -8 6 C-3.375 0 -3.375 0 0 0 Z " fill="#181818" transform="translate(420,271)"/>
<path d="M0 0 C1.61949011 2.57213134 2.04408751 3.67669159 1.625 6.75 C1.41875 7.4925 1.2125 8.235 1 9 C0.34 9 -0.32 9 -1 9 C-1 10.65 -1 12.3 -1 14 C-1.33 14 -1.66 14 -2 14 C-1.85795259 12.41632253 -1.71119847 10.83306682 -1.5625 9.25 C-1.48128906 8.36828125 -1.40007812 7.4865625 -1.31640625 6.578125 C-1.03761535 4.30649548 -0.61209423 2.20148177 0 0 Z " fill="#141414" transform="translate(458,261)"/>
<path d="M0 0 C6 6 6 6 6.0625 8.5625 C6.041875 9.366875 6.02125 10.17125 6 11 C4.68 10.67 3.36 10.34 2 10 C2.99 10 3.98 10 5 10 C3.47793991 7.37098712 2.15634036 5.15634036 0 3 C0 2.01 0 1.02 0 0 Z " fill="#1C1C1C" transform="translate(425,266)"/>
<path d="M0 0 C2.83022097 3.99560608 1.76210446 7.42737323 1 12 C0.34 12 -0.32 12 -1 12 C-1.08159574 7.83861737 -0.98248524 4.0527516 0 0 Z " fill="#0E0E0E" transform="translate(247,260)"/>
<path d="M0 0 C5.75 1.625 5.75 1.625 8 5 C5.69 5 3.38 5 1 5 C0.67 3.35 0.34 1.7 0 0 Z " fill="#010101" transform="translate(214,249)"/>
<path d="M0 0 C0.99 0.66 1.98 1.32 3 2 C2.34 2 1.68 2 1 2 C1 2.66 1 3.32 1 4 C-0.8125 5.6875 -0.8125 5.6875 -3 7 C-3.99 6.67 -4.98 6.34 -6 6 C-4.02 4.02 -2.04 2.04 0 0 Z " fill="#171717" transform="translate(177,242)"/>
<path d="M0 0 C0.99 0.66 1.98 1.32 3 2 C3 2.66 3 3.32 3 4 C2.34 4 1.68 4 1 4 C1 5.32 1 6.64 1 8 C0.01 8 -0.98 8 -2 8 C-1.125 1.125 -1.125 1.125 0 0 Z " fill="#2E2E2E" transform="translate(345,171)"/>
<path d="M0 0 C2.375 0.1875 2.375 0.1875 5 1 C6.3125 3.5625 6.3125 3.5625 7 6 C6.01 6.33 5.02 6.66 4 7 C3.896875 6.401875 3.79375 5.80375 3.6875 5.1875 C2.91123545 2.71756736 1.92911079 1.67748765 0 0 Z " fill="#272727" transform="translate(210,153)"/>
<path d="M0 0 C0.33 0.99 0.66 1.98 1 3 C3.01508358 3.73323796 3.01508358 3.73323796 5 4 C3.02 4.66 1.04 5.32 -1 6 C-1.33 4.35 -1.66 2.7 -2 1 C-1.34 0.67 -0.68 0.34 0 0 Z " fill="#323232" transform="translate(463,449)"/>
<path d="M0 0 C0.66 0.33 1.32 0.66 2 1 C2 1.66 2 2.32 2 3 C-1.96 4.98 -1.96 4.98 -6 7 C-5 3 -5 3 -2.5625 1.1875 C-1.716875 0.795625 -0.87125 0.40375 0 0 Z " fill="#1C1C1C" transform="translate(201,340)"/>
<path d="M0 0 C0.33 0 0.66 0 1 0 C1.33 3.96 1.66 7.92 2 12 C3.32 12.33 4.64 12.66 6 13 C3.625 13.1875 3.625 13.1875 1 13 C-1.30143236 9.54785147 -1.13833854 8.76520676 -0.625 4.8125 C-0.51414063 3.91144531 -0.40328125 3.01039063 -0.2890625 2.08203125 C-0.19367188 1.39496094 -0.09828125 0.70789063 0 0 Z " fill="#141414" transform="translate(240,284)"/>
<path d="M0 0 C0.99 0.33 1.98 0.66 3 1 C2.34 3.31 1.68 5.62 1 8 C0.34 7.67 -0.32 7.34 -1 7 C-0.67 4.69 -0.34 2.38 0 0 Z " fill="#141414" transform="translate(252,261)"/>
<path d="M0 0 C1.125 1.6875 1.125 1.6875 2 4 C1.24101587 7.18773336 0.69126741 8.57304072 -2.125 10.3125 C-3.053125 10.6528125 -3.053125 10.6528125 -4 11 C-3.67 10.01 -3.34 9.02 -3 8 C-2.34 8 -1.68 8 -1 8 C-0.67 5.36 -0.34 2.72 0 0 Z " fill="#1F1F1F" transform="translate(260,251)"/>
<path d="M0 0 C0.99 0.33 1.98 0.66 3 1 C2.43945339 4.36327963 1.58158962 6.99112219 0 10 C-0.19412181 8.52168779 -0.38012131 7.04230684 -0.5625 5.5625 C-0.66691406 4.73878906 -0.77132813 3.91507813 -0.87890625 3.06640625 C-0.91886719 2.38449219 -0.95882813 1.70257813 -1 1 C-0.67 0.67 -0.34 0.34 0 0 Z " fill="#1F1F1F" transform="translate(438,246)"/>
<path d="M0 0 C0 0.99 0 1.98 0 3 C-3 3 -6 3 -9 3 C-6.38997624 -0.48003168 -4.1689578 -0.27793052 0 0 Z " fill="#202020" transform="translate(411,244)"/>
<path d="M0 0 C3.375 0.3125 3.375 0.3125 7 1 C7.66 1.99 8.32 2.98 9 4 C5.83179542 4 4.74405092 3.37202546 2 2 C1.01 2 0.02 2 -1 2 C-0.67 1.34 -0.34 0.68 0 0 Z " fill="#2E2E2E" transform="translate(351,169)"/>
<path d="M0 0 C0.556875 0.7115625 0.556875 0.7115625 1.125 1.4375 C3.62646962 3.52205802 5.81593418 3.64621491 9 4 C6 6 6 6 3.3125 5.625 C2.549375 5.41875 1.78625 5.2125 1 5 C0.67 3.35 0.34 1.7 0 0 Z " fill="#191919" transform="translate(406,460)"/>
<path d="M0 0 C-1.49097658 3.7952131 -3.75700849 5.61042731 -7 8 C-4.18918919 0 -4.18918919 0 0 0 Z " fill="#1C1C1C" transform="translate(405,461)"/>
<path d="M0 0 C1.42944945 2.35438733 2.08661261 3.48032433 1.625 6.25 C1.41875 6.8275 1.2125 7.405 1 8 C0.34 8 -0.32 8 -1 8 C-1.33 8.99 -1.66 9.98 -2 11 C-1.85892253 9.54119891 -1.71197585 8.08296449 -1.5625 6.625 C-1.48128906 5.81289063 -1.40007812 5.00078125 -1.31640625 4.1640625 C-1 2 -1 2 0 0 Z " fill="#161616" transform="translate(287,398)"/>
<path d="M0 0 C0 3 0 3 -1.3125 4.60546875 C-1.869375 5.12753906 -2.42625 5.64960938 -3 6.1875 C-3.556875 6.71730469 -4.11375 7.24710937 -4.6875 7.79296875 C-5.120625 8.19128906 -5.55375 8.58960938 -6 9 C-6.66 8.67 -7.32 8.34 -8 8 C-5.33333333 5.33333333 -2.66666667 2.66666667 0 0 Z " fill="#060606" transform="translate(180,341)"/>
<path d="M0 0 C1.32 0.33 2.64 0.66 4 1 C4 1.66 4 2.32 4 3 C6.64 3 9.28 3 12 3 C12 3.33 12 3.66 12 4 C8.7 4 5.4 4 2 4 C1.34 2.68 0.68 1.36 0 0 Z " fill="#101010" transform="translate(215,294)"/>
<path d="M0 0 C0.763125 0.20625 1.52625 0.4125 2.3125 0.625 C-3.8875 4.75833333 -3.8875 4.75833333 -6.9375 4.25 C-7.515 4.04375 -8.0925 3.8375 -8.6875 3.625 C-7.6975 3.625 -6.7075 3.625 -5.6875 3.625 C-5.6875 2.965 -5.6875 2.305 -5.6875 1.625 C-2.6875 -0.375 -2.6875 -0.375 0 0 Z " fill="#161616" transform="translate(333.6875,266.375)"/>
<path d="M0 0 C0 0.99 0 1.98 0 3 C-2.31 4.32 -4.62 5.64 -7 7 C-7.33 6.34 -7.66 5.68 -8 5 C-4.04 2.525 -4.04 2.525 0 0 Z " fill="#1C1C1C" transform="translate(296,241)"/>
<path d="M0 0 C1.73662334 3.22515763 2.8905928 6.51329166 4 10 C3.01 10.495 3.01 10.495 2 11 C-0.32590854 7.36576791 -0.16265833 4.22911669 0 0 Z " fill="#1B1B1B" transform="translate(243,202)"/>
<path d="M0 0 C2 2 2 2 2.125 5.125 C2.08375 6.07375 2.0425 7.0225 2 8 C1.01 8.33 0.02 8.66 -1 9 C-0.67 6.03 -0.34 3.06 0 0 Z " fill="#303030" transform="translate(263,181)"/>
<path d="M0 0 C3.36720387 1.39332574 4.9859524 2.9789286 7 6 C4 6 4 6 1.3125 3.5 C0.549375 2.675 -0.21375 1.85 -1 1 C-0.67 0.67 -0.34 0.34 0 0 Z " fill="#222222" transform="translate(277,175)"/>
<path d="M0 0 C2.0625 0.4375 2.0625 0.4375 4 1 C3.67 1.99 3.34 2.98 3 4 C2.67 3.67 2.34 3.34 2 3 C1.67 5.64 1.34 8.28 1 11 C0.67 11 0.34 11 0 11 C-0.19406478 9.35492782 -0.38007935 7.70890406 -0.5625 6.0625 C-0.66691406 5.14597656 -0.77132812 4.22945312 -0.87890625 3.28515625 C-0.91886719 2.53105469 -0.95882812 1.77695313 -1 1 C-0.67 0.67 -0.34 0.34 0 0 Z " fill="#141414" transform="translate(243,156)"/>
<path d="M0 0 C0.66 0.33 1.32 0.66 2 1 C-0.39509338 3.89932357 -2.31245243 4.50168276 -6 5 C-6 4.34 -6 3.68 -6 3 C-4.03533587 1.93224776 -2.03144641 0.93446535 0 0 Z " fill="#0D0D0D" transform="translate(488,442)"/>
<path d="M0 0 C0.66 0 1.32 0 2 0 C1.67 4.62 1.34 9.24 1 14 C0.67 14 0.34 14 0 14 C-0.19393875 11.85473901 -0.37998676 9.70876323 -0.5625 7.5625 C-0.71912109 5.77005859 -0.71912109 5.77005859 -0.87890625 3.94140625 C-0.91886719 2.97074219 -0.95882813 2.00007813 -1 1 C-0.67 0.67 -0.34 0.34 0 0 Z " fill="#C1C1C1" transform="translate(357,401)"/>
<path d="M0 0 C0.33 0.99 0.66 1.98 1 3 C-0.65 4.32 -2.3 5.64 -4 7 C-4.99 6.34 -5.98 5.68 -7 5 C-6.21625 4.54625 -5.4325 4.0925 -4.625 3.625 C-1.96301969 2.11571258 -1.96301969 2.11571258 0 0 Z " fill="#181818" transform="translate(235,404)"/>
<path d="M0 0 C0.66 0 1.32 0 2 0 C1.67 2.97 1.34 5.94 1 9 C-1 6 -1 6 -0.625 2.8125 C-0.41875 1.884375 -0.2125 0.95625 0 0 Z " fill="#161616" transform="translate(243,368)"/>
<path d="M0 0 C-0.33 0.99 -0.66 1.98 -1 3 C-4.0625 4.1875 -4.0625 4.1875 -7 5 C-6 2 -6 2 -4.0625 0.8125 C-2 0 -2 0 0 0 Z " fill="#060606" transform="translate(195,345)"/>
<path d="M0 0 C0.66 0.33 1.32 0.66 2 1 C2 3.31 2 5.62 2 8 C1.34 6.68 0.68 5.36 0 4 C-0.99 4.33 -1.98 4.66 -3 5 C-1.125 1.125 -1.125 1.125 0 0 Z " fill="#393939" transform="translate(304,341)"/>
<path d="M0 0 C0.33 1.32 0.66 2.64 1 4 C-0.4375 6.25 -0.4375 6.25 -2 8 C-2.99 7.67 -3.98 7.34 -5 7 C-3.35 4.69 -1.7 2.38 0 0 Z " fill="#131313" transform="translate(393,217)"/>
<path d="M0 0 C2.875 0.3125 2.875 0.3125 6 1 C6.66 1.99 7.32 2.98 8 4 C7.34 4.66 6.68 5.32 6 6 C4 4 2 2 0 0 Z " fill="#212121" transform="translate(323,168)"/>
<path d="M0 0 C0.99 0.33 1.98 0.66 3 1 C1.68 2.32 0.36 3.64 -1 5 C-1.99 4.67 -2.98 4.34 -4 4 C-2.68 2.68 -1.36 1.36 0 0 Z " fill="#262626" transform="translate(464,437)"/>
<path d="M0 0 C0 3 0 3 -1.3125 4.38671875 C-2.875 5.59114583 -4.4375 6.79557292 -6 8 C-5.65120368 4.74456771 -4.97866739 3.98126893 -2.4375 1.75 C-1.633125 1.1725 -0.82875 0.595 0 0 Z " fill="#0D0D0D" transform="translate(260,409)"/>
<path d="M0 0 C0.99 0.33 1.98 0.66 3 1 C1.35 2.65 -0.3 4.3 -2 6 C-2.33 5.01 -2.66 4.02 -3 3 C-2.01 2.01 -1.02 1.02 0 0 Z " fill="#2F2F2F" transform="translate(188,342)"/>
<path d="M0 0 C-0.33 0.99 -0.66 1.98 -1 3 C-4.0625 4.1875 -4.0625 4.1875 -7 5 C-6 2 -6 2 -4.0625 0.8125 C-2 0 -2 0 0 0 Z " fill="#0C0C0C" transform="translate(219,331)"/>
<path d="M0 0 C0.66 0.66 1.32 1.32 2 2 C-0.31 3.65 -2.62 5.3 -5 7 C-3.75023244 3.34683329 -3.32901247 2.21934164 0 0 Z " fill="#171717" transform="translate(202,319)"/>
<path d="M0 0 C2.125 0.375 2.125 0.375 4 1 C3.01 1.495 3.01 1.495 2 2 C1.34786708 4.02463255 1.34786708 4.02463255 1 6 C0.34 6 -0.32 6 -1 6 C-1.625 4.125 -1.625 4.125 -2 2 C-1.34 1.34 -0.68 0.68 0 0 Z " fill="#323232" transform="translate(297,309)"/>
<path d="M0 0 C1.98 0 3.96 0 6 0 C5.38125 0.061875 4.7625 0.12375 4.125 0.1875 C1.72238859 0.828919 1.72238859 0.828919 0.75 3.5625 C0.5025 4.366875 0.255 5.17125 0 6 C-0.66 5.34 -1.32 4.68 -2 4 C-1.34 2.68 -0.68 1.36 0 0 Z " fill="#121212" transform="translate(254,246)"/>
</svg>
